<?xml version="1.0" standalone="yes"?>

<svg version="1.1" viewBox="0.0 0.0 720.0 540.0" fill="none" stroke="none" stroke-linecap="square" stroke-miterlimit="10" xmlns="http://www.w3.org/2000/svg" xmlns:xlink="http://www.w3.org/1999/xlink"><clipPath id="p.0"><path d="m0 0l720.0 0l0 540.0l-720.0 0l0 -540.0z" clip-rule="nonzero"></path></clipPath><g clip-path="url(#p.0)"><path fill="#000000" fill-opacity="0.0" d="m0 0l720.0 0l0 540.0l-720.0 0z" fill-rule="evenodd"></path><path fill="#000000" fill-opacity="0.0" d="m79.773796 167.51181l0 -57.984253" fill-rule="evenodd"></path><path stroke="#000000" stroke-width="2.0" stroke-linejoin="round" stroke-linecap="butt" d="m79.773796 167.51181l0 -45.984253" fill-rule="evenodd"></path><path fill="#000000" stroke="#000000" stroke-width="2.0" stroke-linecap="butt" d="m83.07726 121.52756l-3.3034668 -9.076195l-3.3034668 9.076195z" fill-rule="evenodd"></path><path fill="#b6d7a8" d="m38.137047 70.031494l0 0c0 -21.813072 18.64141 -39.496063 41.63675 -39.496063l0 0c11.042755 0 21.633224 4.1611805 29.441628 11.568129c7.8084106 7.406948 12.195122 17.452927 12.195122 27.927933l0 0c0 21.813072 -18.641403 39.496063 -41.63675 39.496063l0 0c-22.995338 0 -41.63675 -17.682991 -41.63675 -39.496063z" fill-rule="evenodd"></path><path stroke="#000000" stroke-width="2.0" stroke-linejoin="round" stroke-linecap="butt" d="m38.137047 70.031494l0 0c0 -21.813072 18.64141 -39.496063 41.63675 -39.496063l0 0c11.042755 0 21.633224 4.1611805 29.441628 11.568129c7.8084106 7.406948 12.195122 17.452927 12.195122 27.927933l0 0c0 21.813072 -18.641403 39.496063 -41.63675 39.496063l0 0c-22.995338 0 -41.63675 -17.682991 -41.63675 -39.496063z" fill-rule="evenodd"></path><path fill="#000000" fill-opacity="0.0" d="m79.773796 264.0l0 -57.984253" fill-rule="evenodd"></path><path stroke="#000000" stroke-width="2.0" stroke-linejoin="round" stroke-linecap="butt" d="m79.773796 264.0l0 -45.984253" fill-rule="evenodd"></path><path fill="#000000" stroke="#000000" stroke-width="2.0" stroke-linecap="butt" d="m83.07726 218.01575l-3.3034668 -9.076187l-3.3034668 9.076187z" fill-rule="evenodd"></path><path fill="#e6b8af" d="m38.137047 283.98425l0 0c0 -21.81308 18.64141 -39.496063 41.63675 -39.496063l0 0c11.042755 0 21.633224 4.1611786 29.441628 11.568115c7.8084106 7.406952 12.195122 17.452942 12.195122 27.927948l0 0c0 21.81308 -18.641403 39.496063 -41.63675 39.496063l0 0c-22.995338 0 -41.63675 -17.682983 -41.63675 -39.496063z" fill-rule="evenodd"></path><path stroke="#000000" stroke-width="2.0" stroke-linejoin="round" stroke-linecap="butt" d="m38.137047 283.98425l0 0c0 -21.81308 18.64141 -39.496063 41.63675 -39.496063l0 0c11.042755 0 21.633224 4.1611786 29.441628 11.568115c7.8084106 7.406952 12.195122 17.452942 12.195122 27.927948l0 0c0 21.81308 -18.641403 39.496063 -41.63675 39.496063l0 0c-22.995338 0 -41.63675 -17.682983 -41.63675 -39.496063z" fill-rule="evenodd"></path><path fill="#c9daf8" d="m26.001297 148.0l0 0c0 -4.8828125E-4 4.0245056E-4 -9.0026855E-4 8.9645386E-4 -9.0026855E-4l107.5441 9.0026855E-4c2.4414062E-4 0 4.7302246E-4 9.1552734E-5 6.4086914E-4 2.593994E-4c1.6784668E-4 1.6784668E-4 2.593994E-4 3.9672852E-4 2.593994E-4 6.4086914E-4l-9.0026855E-4 58.014847c0 5.0354004E-4 -3.9672852E-4 9.0026855E-4 -8.8500977E-4 9.0026855E-4l-107.54411 -9.0026855E-4l0 0c-4.940033E-4 0 -8.9645386E-4 -3.9672852E-4 -8.9645386E-4 -9.0026855E-4z" fill-rule="evenodd"></path><path stroke="#1155cc" stroke-width="2.0" stroke-linejoin="round" stroke-linecap="butt" d="m26.001297 148.0l0 0c0 -4.8828125E-4 4.0245056E-4 -9.0026855E-4 8.9645386E-4 -9.0026855E-4l107.5441 9.0026855E-4c2.4414062E-4 0 4.7302246E-4 9.1552734E-5 6.4086914E-4 2.593994E-4c1.6784668E-4 1.6784668E-4 2.593994E-4 3.9672852E-4 2.593994E-4 6.4086914E-4l-9.0026855E-4 58.014847c0 5.0354004E-4 -3.9672852E-4 9.0026855E-4 -8.8500977E-4 9.0026855E-4l-107.54411 -9.0026855E-4l0 0c-4.940033E-4 0 -8.9645386E-4 -3.9672852E-4 -8.9645386E-4 -9.0026855E-4z" fill-rule="evenodd"></path><path fill="#1155cc" d="m52.359 184.48787l0 -14.90625l3.03125 0l0 12.375l7.546875 0l0 2.53125l-10.578125 0zm12.184326 -4.890625l2.953125 -0.28125q0.265625 1.484375 1.078125 2.1875q0.8125 0.6875 2.203125 0.6875q1.453125 0 2.203125 -0.609375q0.75 -0.625 0.75 -1.46875q0 -0.53125 -0.3125 -0.90625q-0.3125 -0.375 -1.09375 -0.640625q-0.53125 -0.1875 -2.4375 -0.65625q-2.4375 -0.609375 -3.421875 -1.484375q-1.390625 -1.25 -1.390625 -3.03125q0 -1.15625 0.65625 -2.15625q0.65625 -1.0 1.875 -1.515625q1.234375 -0.515625 2.953125 -0.515625q2.84375 0 4.265625 1.234375q1.4375 1.234375 1.5 3.3125l-3.03125 0.125q-0.1875 -1.15625 -0.828125 -1.65625q-0.640625 -0.515625 -1.9375 -0.515625q-1.3125 0 -2.0625 0.546875q-0.484375 0.34375 -0.484375 0.9375q0 0.53125 0.453125 0.90625q0.578125 0.484375 2.78125 1.015625q2.21875 0.515625 3.28125 1.078125q1.0625 0.5625 1.65625 1.53125q0.609375 0.96875 0.609375 2.390625q0 1.28125 -0.71875 2.421875q-0.71875 1.125 -2.03125 1.671875q-1.3125 0.546875 -3.265625 0.546875q-2.859375 0 -4.390625 -1.3125q-1.515625 -1.328125 -1.8125 -3.84375zm18.366318 4.890625l0 -12.484375l-4.453125 0l0 -2.546875l11.9375 0l0 2.546875l-4.4375 0l0 12.484375l-3.046875 0zm9.606201 0l0 -15.03125l4.546875 0l2.71875 10.25l2.703125 -10.25l4.546875 0l0 15.03125l-2.8125 0l0 -11.828125l-2.984375 11.828125l-2.921875 0l-2.96875 -11.828125l0 11.828125l-2.828125 0z" fill-rule="nonzero"></path><path fill="#000000" fill-opacity="0.0" d="m38.137047 257.48032l83.2735 0l0 53.007874l-83.2735 0z" fill-rule="evenodd"></path><path fill="#000000" d="m63.842155 294.28595l0 -21.953125l4.65625 0l0 1.75l-2.546875 0l0 18.46875l2.546875 0l0 1.734375l-4.65625 0z" fill-rule="nonzero"></path><path fill="#222222" d="m72.057 289.52032l-1.3125 -12.453125l2.046875 0l0.5625 5.59375l0.21875 3.140625q0.03125 0.359375 0.078125 1.421875q0.34375 -1.203125 0.59375 -1.828125q0.25 -0.640625 0.78125 -1.828125l2.96875 -6.5l2.3125 0l0.40625 6.234375q0.09375 1.40625 0.109375 3.78125q0.59375 -1.578125 1.921875 -4.359375l2.671875 -5.65625l2.109375 0l-6.078125 12.453125l-2.203125 0l-0.46875 -7.296875q-0.046875 -0.6875 -0.0625 -2.65625q-0.484375 1.25 -1.140625 2.703125l-3.296875 7.25l-2.21875 0z" fill-rule="nonzero"></path><path fill="#222222" d="m90.060905 297.36407l-0.234375 1.171875q-0.515625 0.125 -0.984375 0.125q-0.84375 0 -1.34375 -0.421875q-0.375 -0.3125 -0.375 -0.84375q0 -0.28125 0.203125 -1.265625l1.0 -4.8125l-1.109375 0l0.21875 -1.09375l1.125 0l0.421875 -2.046875l1.625 -0.96875l-0.640625 3.015625l1.390625 0l-0.234375 1.09375l-1.375 0l-0.96875 4.578125q-0.171875 0.875 -0.171875 1.046875q0 0.25 0.140625 0.390625q0.140625 0.125 0.46875 0.125q0.46875 0 0.84375 -0.09375z" fill-rule="nonzero"></path><path fill="#000000" d="m95.77184 294.28595l-4.65625 0l0 -1.734375l2.546875 0l0 -18.46875l-2.546875 0l0 -1.75l4.65625 0l0 21.953125z" fill-rule="nonzero"></path><path fill="#000000" fill-opacity="0.0" d="m26.001297 43.527557l107.545 0l0 53.007874l-107.545 0z" fill-rule="evenodd"></path><path fill="#000000" d="m51.975452 83.48693l0 -24.6875l5.234375 0l0 1.96875l-2.859375 0l0 20.765625l2.859375 0l0 1.953125l-5.234375 0z" fill-rule="nonzero"></path><path fill="#222222" d="m61.115784 78.127556l-1.46875 -14.0l2.296875 0l0.625 6.28125l0.265625 3.546875q0.015625 0.390625 0.078125 1.59375q0.390625 -1.34375 0.65625 -2.0625q0.28125 -0.71875 0.890625 -2.0625l3.34375 -7.296875l2.59375 0l0.453125 7.0q0.109375 1.59375 0.140625 4.25q0.65625 -1.765625 2.140625 -4.890625l3.015625 -6.359375l2.375 0l-6.828125 14.0l-2.484375 0l-0.53125 -8.21875q-0.046875 -0.765625 -0.078125 -2.96875q-0.546875 1.40625 -1.28125 3.046875l-3.703125 8.140625l-2.5 0z" fill-rule="nonzero"></path><path fill="#222222" d="m81.11607 86.83068l-0.265625 1.3125q-0.5625 0.140625 -1.109375 0.140625q-0.9375 0 -1.5 -0.46875q-0.421875 -0.34375 -0.421875 -0.953125q0 -0.3125 0.21875 -1.421875l1.140625 -5.421875l-1.265625 0l0.265625 -1.21875l1.25 0l0.484375 -2.296875l1.828125 -1.109375l-0.71875 3.40625l1.5625 0l-0.265625 1.21875l-1.546875 0l-1.078125 5.171875q-0.203125 0.984375 -0.203125 1.171875q0 0.28125 0.15625 0.4375q0.15625 0.140625 0.53125 0.140625q0.53125 0 0.9375 -0.109375zm5.748291 -0.78125l0 -3.53125l-3.5 0l0 -1.484375l3.5 0l0 -3.5l1.5 0l0 3.5l3.5 0l0 1.484375l-3.5 0l0 3.53125l-1.5 0zm9.577812 2.078125l2.046875 -9.734375q-1.328125 1.046875 -3.71875 1.671875l0.3125 -1.453125q1.1875 -0.46875 2.328125 -1.234375q1.15625 -0.765625 1.75 -1.328125q0.34375 -0.359375 0.65625 -0.859375l0.921875 0l-2.6875 12.9375l-1.609375 0z" fill-rule="nonzero"></path><path fill="#000000" d="m107.74431 83.48693l-5.234375 0l0 -1.953125l2.859375 0l0 -20.765625l-2.859375 0l0 -1.96875l5.234375 0l0 24.6875z" fill-rule="nonzero"></path><path fill="#000000" fill-opacity="0.0" d="m254.7876 167.51181l0 -57.984253" fill-rule="evenodd"></path><path stroke="#000000" stroke-width="2.0" stroke-linejoin="round" stroke-linecap="butt" d="m254.78761 167.51181l0 -45.984253" fill-rule="evenodd"></path><path fill="#000000" stroke="#000000" stroke-width="2.0" stroke-linecap="butt" d="m258.09106 121.52756l-3.3034515 -9.076195l-3.3034668 9.076195z" fill-rule="evenodd"></path><path fill="#b6d7a8" d="m213.15085 70.031494l0 0c0 -21.813072 18.641403 -39.496063 41.63675 -39.496063l0 0c11.042755 0 21.63324 4.1611805 29.44162 11.568129c7.8084106 7.406948 12.195129 17.452927 12.195129 27.927933l0 0c0 21.813072 -18.641418 39.496063 -41.63675 39.496063l0 0c-22.995346 0 -41.63675 -17.682991 -41.63675 -39.496063z" fill-rule="evenodd"></path><path stroke="#000000" stroke-width="2.0" stroke-linejoin="round" stroke-linecap="butt" d="m213.15085 70.031494l0 0c0 -21.813072 18.641403 -39.496063 41.63675 -39.496063l0 0c11.042755 0 21.63324 4.1611805 29.44162 11.568129c7.8084106 7.406948 12.195129 17.452927 12.195129 27.927933l0 0c0 21.813072 -18.641418 39.496063 -41.63675 39.496063l0 0c-22.995346 0 -41.63675 -17.682991 -41.63675 -39.496063z" fill-rule="evenodd"></path><path fill="#000000" fill-opacity="0.0" d="m254.7876 264.0l0 -57.984253" fill-rule="evenodd"></path><path stroke="#000000" stroke-width="2.0" stroke-linejoin="round" stroke-linecap="butt" d="m254.78761 264.0l0 -45.984253" fill-rule="evenodd"></path><path fill="#000000" stroke="#000000" stroke-width="2.0" stroke-linecap="butt" d="m258.09106 218.01575l-3.3034515 -9.076187l-3.3034668 9.076187z" fill-rule="evenodd"></path><path fill="#e6b8af" d="m213.15085 283.98425l0 0c0 -21.81308 18.641403 -39.496063 41.63675 -39.496063l0 0c11.042755 0 21.63324 4.1611786 29.44162 11.568115c7.8084106 7.406952 12.195129 17.452942 12.195129 27.927948l0 0c0 21.81308 -18.641418 39.496063 -41.63675 39.496063l0 0c-22.995346 0 -41.63675 -17.682983 -41.63675 -39.496063z" fill-rule="evenodd"></path><path stroke="#000000" stroke-width="2.0" stroke-linejoin="round" stroke-linecap="butt" d="m213.15085 283.98425l0 0c0 -21.81308 18.641403 -39.496063 41.63675 -39.496063l0 0c11.042755 0 21.63324 4.1611786 29.44162 11.568115c7.8084106 7.406952 12.195129 17.452942 12.195129 27.927948l0 0c0 21.81308 -18.641418 39.496063 -41.63675 39.496063l0 0c-22.995346 0 -41.63675 -17.682983 -41.63675 -39.496063z" fill-rule="evenodd"></path><path fill="#c9daf8" d="m201.0151 148.0l0 0c0 -4.8828125E-4 3.9672852E-4 -9.0026855E-4 8.8500977E-4 -9.0026855E-4l107.5441 9.0026855E-4c2.4414062E-4 0 4.8828125E-4 9.1552734E-5 6.4086914E-4 2.593994E-4c1.8310547E-4 1.6784668E-4 2.746582E-4 3.9672852E-4 2.746582E-4 6.4086914E-4l-9.1552734E-4 58.014847c0 5.0354004E-4 -3.9672852E-4 9.0026855E-4 -8.8500977E-4 9.0026855E-4l-107.5441 -9.0026855E-4l0 0c-5.0354004E-4 0 -9.0026855E-4 -3.9672852E-4 -9.0026855E-4 -9.0026855E-4z" fill-rule="evenodd"></path><path stroke="#1155cc" stroke-width="2.0" stroke-linejoin="round" stroke-linecap="butt" d="m201.0151 148.0l0 0c0 -4.8828125E-4 3.9672852E-4 -9.0026855E-4 8.8500977E-4 -9.0026855E-4l107.5441 9.0026855E-4c2.4414062E-4 0 4.8828125E-4 9.1552734E-5 6.4086914E-4 2.593994E-4c1.8310547E-4 1.6784668E-4 2.746582E-4 3.9672852E-4 2.746582E-4 6.4086914E-4l-9.1552734E-4 58.014847c0 5.0354004E-4 -3.9672852E-4 9.0026855E-4 -8.8500977E-4 9.0026855E-4l-107.5441 -9.0026855E-4l0 0c-5.0354004E-4 0 -9.0026855E-4 -3.9672852E-4 -9.0026855E-4 -9.0026855E-4z" fill-rule="evenodd"></path><path fill="#1155cc" d="m227.3728 184.48787l0 -14.90625l3.03125 0l0 12.375l7.546875 0l0 2.53125l-10.578125 0zm12.184326 -4.890625l2.953125 -0.28125q0.265625 1.484375 1.078125 2.1875q0.8125 0.6875 2.203125 0.6875q1.453125 0 2.203125 -0.609375q0.75 -0.625 0.75 -1.46875q0 -0.53125 -0.3125 -0.90625q-0.3125 -0.375 -1.09375 -0.640625q-0.53125 -0.1875 -2.4375 -0.65625q-2.4375 -0.609375 -3.421875 -1.484375q-1.390625 -1.25 -1.390625 -3.03125q0 -1.15625 0.65625 -2.15625q0.65625 -1.0 1.875 -1.515625q1.234375 -0.515625 2.953125 -0.515625q2.84375 0 4.265625 1.234375q1.4375 1.234375 1.5 3.3125l-3.03125 0.125q-0.1875 -1.15625 -0.828125 -1.65625q-0.640625 -0.515625 -1.9375 -0.515625q-1.3125 0 -2.0625 0.546875q-0.484375 0.34375 -0.484375 0.9375q0 0.53125 0.453125 0.90625q0.578125 0.484375 2.78125 1.015625q2.21875 0.515625 3.28125 1.078125q1.0625 0.5625 1.65625 1.53125q0.609375 0.96875 0.609375 2.390625q0 1.28125 -0.71875 2.421875q-0.71875 1.125 -2.03125 1.671875q-1.3125 0.546875 -3.265625 0.546875q-2.859375 0 -4.390625 -1.3125q-1.515625 -1.328125 -1.8125 -3.84375zm18.366333 4.890625l0 -12.484375l-4.4531403 0l0 -2.546875l11.937515 0l0 2.546875l-4.4375 0l0 12.484375l-3.046875 0zm9.606201 0l0 -15.03125l4.546875 0l2.71875 10.25l2.703125 -10.25l4.546875 0l0 15.03125l-2.8125 0l0 -11.828125l-2.984375 11.828125l-2.921875 0l-2.96875 -11.828125l0 11.828125l-2.828125 0z" fill-rule="nonzero"></path><path fill="#000000" fill-opacity="0.0" d="m213.15085 257.48032l83.2735 0l0 53.007874l-83.2735 0z" fill-rule="evenodd"></path><path fill="#000000" d="m229.73486 294.28595l0 -21.953125l4.65625 0l0 1.75l-2.546875 0l0 18.46875l2.546875 0l0 1.734375l-4.65625 0z" fill-rule="nonzero"></path><path fill="#222222" d="m237.9497 289.52032l-1.3125 -12.453125l2.046875 0l0.5625 5.59375l0.21875 3.140625q0.03125 0.359375 0.078125 1.421875q0.34375 -1.203125 0.59375 -1.828125q0.25 -0.640625 0.78125 -1.828125l2.96875 -6.5l2.3125 0l0.40625 6.234375q0.09375 1.40625 0.109375 3.78125q0.59375 -1.578125 1.921875 -4.359375l2.671875 -5.65625l2.109375 0l-6.078125 12.453125l-2.203125 0l-0.46875 -7.296875q-0.046875 -0.6875 -0.0625 -2.65625q-0.484375 1.25 -1.140625 2.703125l-3.296875 7.25l-2.21875 0z" fill-rule="nonzero"></path><path fill="#222222" d="m255.95361 297.36407l-0.234375 1.171875q-0.515625 0.125 -0.984375 0.125q-0.84375 0 -1.34375 -0.421875q-0.375 -0.3125 -0.375 -0.84375q0 -0.28125 0.203125 -1.265625l1.0 -4.8125l-1.109375 0l0.21875 -1.09375l1.125 0l0.421875 -2.046875l1.625 -0.96875l-0.640625 3.015625l1.390625 0l-0.234375 1.09375l-1.375 0l-0.96875 4.578125q-0.171875 0.875 -0.171875 1.046875q0 0.25 0.140625 0.390625q0.140625 0.125 0.46875 0.125q0.46875 0 0.84375 -0.09375zm5.1640625 -0.703125l0 -3.140625l-3.125 0l0 -1.3125l3.125 0l0 -3.109375l1.328125 0l0 3.109375l3.109375 0l0 1.3125l-3.109375 0l0 3.140625l-1.328125 0zm8.640625 1.859375l1.8125 -8.65625q-1.171875 0.921875 -3.296875 1.484375l0.265625 -1.28125q1.046875 -0.421875 2.078125 -1.09375q1.03125 -0.6875 1.546875 -1.203125q0.3125 -0.3125 0.59375 -0.75l0.8125 0l-2.390625 11.5l-1.421875 0z" fill-rule="nonzero"></path><path fill="#000000" d="m279.90674 294.28595l-4.65625 0l0 -1.734375l2.546875 0l0 -18.46875l-2.546875 0l0 -1.75l4.65625 0l0 21.953125z" fill-rule="nonzero"></path><path fill="#000000" fill-opacity="0.0" d="m201.0151 43.527557l107.54498 0l0 53.007874l-107.54498 0z" fill-rule="evenodd"></path><path fill="#000000" d="m226.98926 83.48693l0 -24.6875l5.234375 0l0 1.96875l-2.859375 0l0 20.765625l2.859375 0l0 1.953125l-5.234375 0z" fill-rule="nonzero"></path><path fill="#222222" d="m236.1296 78.127556l-1.46875 -14.0l2.296875 0l0.625 6.28125l0.265625 3.546875q0.015625 0.390625 0.078125 1.59375q0.390625 -1.34375 0.65625 -2.0625q0.28125 -0.71875 0.890625 -2.0625l3.34375 -7.296875l2.59375 0l0.453125 7.0q0.109375 1.59375 0.140625 4.25q0.65625 -1.765625 2.140625 -4.890625l3.015625 -6.359375l2.375 0l-6.828125 14.0l-2.484375 0l-0.53125 -8.21875q-0.046875 -0.765625 -0.078125 -2.96875q-0.546875 1.40625 -1.28125 3.046875l-3.703125 8.140625l-2.5 0z" fill-rule="nonzero"></path><path fill="#222222" d="m256.12988 86.83068l-0.265625 1.3125q-0.5625 0.140625 -1.109375 0.140625q-0.9375 0 -1.5 -0.46875q-0.421875 -0.34375 -0.421875 -0.953125q0 -0.3125 0.21875 -1.421875l1.140625 -5.421875l-1.265625 0l0.265625 -1.21875l1.25 0l0.484375 -2.296875l1.828125 -1.109375l-0.71875 3.40625l1.5625 0l-0.265625 1.21875l-1.546875 0l-1.078125 5.171875q-0.203125 0.984375 -0.203125 1.171875q0 0.28125 0.15625 0.4375q0.15625 0.140625 0.53125 0.140625q0.53125 0 0.9375 -0.109375zm5.748291 -0.78125l0 -3.53125l-3.5 0l0 -1.484375l3.5 0l0 -3.5l1.5 0l0 3.5l3.5 0l0 1.484375l-3.5 0l0 3.53125l-1.5 0zm6.312195 2.078125q0.234375 -1.15625 0.671875 -1.921875q0.4375 -0.78125 1.15625 -1.484375q0.71875 -0.703125 2.78125 -2.34375q1.25 -0.984375 1.703125 -1.46875q0.65625 -0.6875 0.953125 -1.34375q0.203125 -0.453125 0.203125 -0.96875q0 -0.890625 -0.625 -1.5q-0.625 -0.625 -1.546875 -0.625q-0.90625 0 -1.578125 0.625q-0.671875 0.625 -0.96875 2.015625l-1.546875 -0.234375q0.21875 -1.703125 1.3125 -2.6875q1.109375 -1.0 2.765625 -1.0q1.09375 0 1.984375 0.453125q0.890625 0.453125 1.328125 1.28125q0.453125 0.828125 0.453125 1.703125q0 1.296875 -0.90625 2.484375q-0.5625 0.734375 -3.3125 2.90625q-1.171875 0.921875 -1.75 1.53125q-0.578125 0.59375 -0.859375 1.125l5.765625 0l-0.3125 1.453125l-7.671875 0z" fill-rule="nonzero"></path><path fill="#000000" d="m282.75812 83.48693l-5.234375 0l0 -1.953125l2.859375 0l0 -20.765625l-2.859375 0l0 -1.96875l5.234375 0l0 24.6875z" fill-rule="nonzero"></path><path fill="#000000" fill-opacity="0.0" d="m429.79312 167.51181l0 -57.984253" fill-rule="evenodd"></path><path stroke="#000000" stroke-width="2.0" stroke-linejoin="round" stroke-linecap="butt" d="m429.7931 167.51181l0 -45.984253" fill-rule="evenodd"></path><path fill="#000000" stroke="#000000" stroke-width="2.0" stroke-linecap="butt" d="m433.09656 121.52756l-3.3034668 -9.076195l-3.3034668 9.076195z" fill-rule="evenodd"></path><path fill="#b6d7a8" d="m388.15637 70.031494l0 0c0 -21.813072 18.641388 -39.496063 41.63675 -39.496063l0 0c11.042755 0 21.63321 4.1611805 29.44162 11.568129c7.8084106 7.406948 12.195129 17.452927 12.195129 27.927933l0 0c0 21.813072 -18.641418 39.496063 -41.63675 39.496063l0 0c-22.995361 0 -41.63675 -17.682991 -41.63675 -39.496063z" fill-rule="evenodd"></path><path stroke="#000000" stroke-width="2.0" stroke-linejoin="round" stroke-linecap="butt" d="m388.15637 70.031494l0 0c0 -21.813072 18.641388 -39.496063 41.63675 -39.496063l0 0c11.042755 0 21.63321 4.1611805 29.44162 11.568129c7.8084106 7.406948 12.195129 17.452927 12.195129 27.927933l0 0c0 21.813072 -18.641418 39.496063 -41.63675 39.496063l0 0c-22.995361 0 -41.63675 -17.682991 -41.63675 -39.496063z" fill-rule="evenodd"></path><path fill="#000000" fill-opacity="0.0" d="m429.79312 264.0l0 -57.984253" fill-rule="evenodd"></path><path stroke="#000000" stroke-width="2.0" stroke-linejoin="round" stroke-linecap="butt" d="m429.7931 264.0l0 -45.984253" fill-rule="evenodd"></path><path fill="#000000" stroke="#000000" stroke-width="2.0" stroke-linecap="butt" d="m433.09656 218.01575l-3.3034668 -9.076187l-3.3034668 9.076187z" fill-rule="evenodd"></path><path fill="#e6b8af" d="m388.15637 283.98425l0 0c0 -21.81308 18.641388 -39.496063 41.63675 -39.496063l0 0c11.042755 0 21.63321 4.1611786 29.44162 11.568115c7.8084106 7.406952 12.195129 17.452942 12.195129 27.927948l0 0c0 21.81308 -18.641418 39.496063 -41.63675 39.496063l0 0c-22.995361 0 -41.63675 -17.682983 -41.63675 -39.496063z" fill-rule="evenodd"></path><path stroke="#000000" stroke-width="2.0" stroke-linejoin="round" stroke-linecap="butt" d="m388.15637 283.98425l0 0c0 -21.81308 18.641388 -39.496063 41.63675 -39.496063l0 0c11.042755 0 21.63321 4.1611786 29.44162 11.568115c7.8084106 7.406952 12.195129 17.452942 12.195129 27.927948l0 0c0 21.81308 -18.641418 39.496063 -41.63675 39.496063l0 0c-22.995361 0 -41.63675 -17.682983 -41.63675 -39.496063z" fill-rule="evenodd"></path><path fill="#c9daf8" d="m376.02063 148.0l0 0c0 -4.8828125E-4 3.9672852E-4 -9.0026855E-4 8.8500977E-4 -9.0026855E-4l107.5441 9.0026855E-4c2.4414062E-4 0 4.5776367E-4 9.1552734E-5 6.4086914E-4 2.593994E-4c1.5258789E-4 1.6784668E-4 2.746582E-4 3.9672852E-4 2.746582E-4 6.4086914E-4l-9.1552734E-4 58.014847c0 5.0354004E-4 -3.9672852E-4 9.0026855E-4 -8.8500977E-4 9.0026855E-4l-107.5441 -9.0026855E-4l0 0c-5.187988E-4 0 -9.1552734E-4 -3.9672852E-4 -9.1552734E-4 -9.0026855E-4z" fill-rule="evenodd"></path><path stroke="#1155cc" stroke-width="2.0" stroke-linejoin="round" stroke-linecap="butt" d="m376.02063 148.0l0 0c0 -4.8828125E-4 3.9672852E-4 -9.0026855E-4 8.8500977E-4 -9.0026855E-4l107.5441 9.0026855E-4c2.4414062E-4 0 4.5776367E-4 9.1552734E-5 6.4086914E-4 2.593994E-4c1.5258789E-4 1.6784668E-4 2.746582E-4 3.9672852E-4 2.746582E-4 6.4086914E-4l-9.1552734E-4 58.014847c0 5.0354004E-4 -3.9672852E-4 9.0026855E-4 -8.8500977E-4 9.0026855E-4l-107.5441 -9.0026855E-4l0 0c-5.187988E-4 0 -9.1552734E-4 -3.9672852E-4 -9.1552734E-4 -9.0026855E-4z" fill-rule="evenodd"></path><path fill="#1155cc" d="m402.37833 184.48787l0 -14.90625l3.03125 0l0 12.375l7.546875 0l0 2.53125l-10.578125 0zm12.184326 -4.890625l2.953125 -0.28125q0.265625 1.484375 1.078125 2.1875q0.8125 0.6875 2.203125 0.6875q1.453125 0 2.203125 -0.609375q0.75 -0.625 0.75 -1.46875q0 -0.53125 -0.3125 -0.90625q-0.3125 -0.375 -1.09375 -0.640625q-0.53125 -0.1875 -2.4375 -0.65625q-2.4375 -0.609375 -3.421875 -1.484375q-1.390625 -1.25 -1.390625 -3.03125q0 -1.15625 0.65625 -2.15625q0.65625 -1.0 1.875 -1.515625q1.234375 -0.515625 2.953125 -0.515625q2.84375 0 4.265625 1.234375q1.4375 1.234375 1.5 3.3125l-3.03125 0.125q-0.1875 -1.15625 -0.828125 -1.65625q-0.640625 -0.515625 -1.9375 -0.515625q-1.3125 0 -2.0625 0.546875q-0.484375 0.34375 -0.484375 0.9375q0 0.53125 0.453125 0.90625q0.578125 0.484375 2.78125 1.015625q2.21875 0.515625 3.28125 1.078125q1.0625 0.5625 1.65625 1.53125q0.609375 0.96875 0.609375 2.390625q0 1.28125 -0.71875 2.421875q-0.71875 1.125 -2.03125 1.671875q-1.3125 0.546875 -3.265625 0.546875q-2.859375 0 -4.390625 -1.3125q-1.515625 -1.328125 -1.8125 -3.84375zm18.366302 4.890625l0 -12.484375l-4.453125 0l0 -2.546875l11.9375 0l0 2.546875l-4.4375 0l0 12.484375l-3.046875 0zm9.606201 0l0 -15.03125l4.546875 0l2.71875 10.25l2.703125 -10.25l4.546875 0l0 15.03125l-2.8125 0l0 -11.828125l-2.984375 11.828125l-2.921875 0l-2.96875 -11.828125l0 11.828125l-2.828125 0z" fill-rule="nonzero"></path><path fill="#000000" fill-opacity="0.0" d="m388.15637 257.48032l83.2735 0l0 53.007874l-83.2735 0z" fill-rule="evenodd"></path><path fill="#000000" d="m404.7404 294.28595l0 -21.953125l4.65625 0l0 1.75l-2.546875 0l0 18.46875l2.546875 0l0 1.734375l-4.65625 0z" fill-rule="nonzero"></path><path fill="#222222" d="m412.95523 289.52032l-1.3125 -12.453125l2.046875 0l0.5625 5.59375l0.21875 3.140625q0.03125 0.359375 0.078125 1.421875q0.34375 -1.203125 0.59375 -1.828125q0.25 -0.640625 0.78125 -1.828125l2.96875 -6.5l2.3125 0l0.40625 6.234375q0.09375 1.40625 0.109375 3.78125q0.59375 -1.578125 1.921875 -4.359375l2.671875 -5.65625l2.109375 0l-6.078125 12.453125l-2.203125 0l-0.46875 -7.296875q-0.046875 -0.6875 -0.0625 -2.65625q-0.484375 1.25 -1.140625 2.703125l-3.296875 7.25l-2.21875 0z" fill-rule="nonzero"></path><path fill="#222222" d="m430.95914 297.36407l-0.234375 1.171875q-0.515625 0.125 -0.984375 0.125q-0.84375 0 -1.34375 -0.421875q-0.375 -0.3125 -0.375 -0.84375q0 -0.28125 0.203125 -1.265625l1.0 -4.8125l-1.109375 0l0.21875 -1.09375l1.125 0l0.421875 -2.046875l1.625 -0.96875l-0.640625 3.015625l1.390625 0l-0.234375 1.09375l-1.375 0l-0.96875 4.578125q-0.171875 0.875 -0.171875 1.046875q0 0.25 0.140625 0.390625q0.140625 0.125 0.46875 0.125q0.46875 0 0.84375 -0.09375zm5.1640625 -0.703125l0 -3.140625l-3.125 0l0 -1.3125l3.125 0l0 -3.109375l1.328125 0l0 3.109375l3.109375 0l0 1.3125l-3.109375 0l0 3.140625l-1.328125 0zm5.71875 1.859375q0.21875 -1.03125 0.609375 -1.71875q0.390625 -0.6875 1.03125 -1.3125q0.640625 -0.625 2.46875 -2.078125q1.109375 -0.890625 1.515625 -1.3125q0.578125 -0.609375 0.84375 -1.1875q0.1875 -0.40625 0.1875 -0.875q0 -0.78125 -0.5625 -1.328125q-0.5625 -0.5625 -1.375 -0.5625q-0.796875 0 -1.40625 0.5625q-0.59375 0.5625 -0.859375 1.796875l-1.375 -0.203125q0.203125 -1.53125 1.171875 -2.40625q0.984375 -0.875 2.453125 -0.875q0.96875 0 1.765625 0.40625q0.796875 0.40625 1.1875 1.140625q0.40625 0.734375 0.40625 1.515625q0 1.140625 -0.8125 2.1875q-0.5 0.65625 -2.9375 2.59375q-1.046875 0.828125 -1.5625 1.359375q-0.515625 0.53125 -0.765625 1.0l5.125 0l-0.28125 1.296875l-6.828125 0z" fill-rule="nonzero"></path><path fill="#000000" d="m454.91226 294.28595l-4.65625 0l0 -1.734375l2.546875 0l0 -18.46875l-2.546875 0l0 -1.75l4.65625 0l0 21.953125z" fill-rule="nonzero"></path><path fill="#000000" fill-opacity="0.0" d="m376.02063 43.527557l107.54498 0l0 53.007874l-107.54498 0z" fill-rule="evenodd"></path><path fill="#000000" d="m401.99478 83.48693l0 -24.6875l5.234375 0l0 1.96875l-2.859375 0l0 20.765625l2.859375 0l0 1.953125l-5.234375 0z" fill-rule="nonzero"></path><path fill="#222222" d="m411.1351 78.127556l-1.46875 -14.0l2.296875 0l0.625 6.28125l0.265625 3.546875q0.015625 0.390625 0.078125 1.59375q0.390625 -1.34375 0.65625 -2.0625q0.28125 -0.71875 0.890625 -2.0625l3.34375 -7.296875l2.59375 0l0.453125 7.0q0.109375 1.59375 0.140625 4.25q0.65625 -1.765625 2.140625 -4.890625l3.015625 -6.359375l2.375 0l-6.828125 14.0l-2.484375 0l-0.53125 -8.21875q-0.046875 -0.765625 -0.078125 -2.96875q-0.546875 1.40625 -1.28125 3.046875l-3.703125 8.140625l-2.5 0z" fill-rule="nonzero"></path><path fill="#222222" d="m431.1354 86.83068l-0.265625 1.3125q-0.5625 0.140625 -1.109375 0.140625q-0.9375 0 -1.5 -0.46875q-0.421875 -0.34375 -0.421875 -0.953125q0 -0.3125 0.21875 -1.421875l1.140625 -5.421875l-1.265625 0l0.265625 -1.21875l1.25 0l0.484375 -2.296875l1.828125 -1.109375l-0.71875 3.40625l1.5625 0l-0.265625 1.21875l-1.546875 0l-1.078125 5.171875q-0.203125 0.984375 -0.203125 1.171875q0 0.28125 0.15625 0.4375q0.15625 0.140625 0.53125 0.140625q0.53125 0 0.9375 -0.109375zm5.748291 -0.78125l0 -3.53125l-3.5 0l0 -1.484375l3.5 0l0 -3.5l1.5 0l0 3.5l3.5 0l0 1.484375l-3.5 0l0 3.53125l-1.5 0zm6.2340393 -1.296875l1.546875 -0.1875q0.171875 1.34375 0.765625 1.9375q0.609375 0.578125 1.59375 0.578125q1.171875 0 2.03125 -0.84375q0.859375 -0.84375 0.859375 -1.9375q0 -0.9375 -0.640625 -1.5625q-0.640625 -0.625 -1.71875 -0.625q-0.125 0 -0.515625 0.03125l0.265625 -1.3125q0.234375 0.03125 0.4375 0.03125q1.375 0 2.109375 -0.65625q0.734375 -0.671875 0.734375 -1.640625q0 -0.890625 -0.609375 -1.484375q-0.59375 -0.609375 -1.46875 -0.609375q-0.859375 0 -1.546875 0.625q-0.671875 0.609375 -0.859375 1.734375l-1.5625 -0.3125q0.375 -1.59375 1.46875 -2.453125q1.109375 -0.875 2.609375 -0.875q1.578125 0 2.5625 0.96875q0.984375 0.953125 0.984375 2.34375q0 1.015625 -0.53125 1.78125q-0.53125 0.765625 -1.59375 1.265625q0.75 0.4375 1.125 1.078125q0.375 0.625 0.375 1.453125q0 1.71875 -1.296875 3.0q-1.296875 1.265625 -3.09375 1.265625q-1.75 0 -2.828125 -0.96875q-1.078125 -0.984375 -1.203125 -2.625z" fill-rule="nonzero"></path><path fill="#000000" d="m457.76364 83.48693l-5.234375 0l0 -1.953125l2.859375 0l0 -20.765625l-2.859375 0l0 -1.96875l5.234375 0l0 24.6875z" fill-rule="nonzero"></path><path fill="#000000" fill-opacity="0.0" d="m483.55093 177.00787l67.46457 0" fill-rule="evenodd"></path><path stroke="#000000" stroke-width="2.0" stroke-linejoin="round" stroke-linecap="butt" d="m483.55093 177.00787l55.46457 0" fill-rule="evenodd"></path><path fill="#000000" stroke="#000000" stroke-width="2.0" stroke-linecap="butt" d="m539.0155 180.31134l9.076172 -3.3034668l-9.076172 -3.3034668z" fill-rule="evenodd"></path><path fill="#000000" fill-opacity="0.0" d="m543.0284 151.37007l86.2677 0l0 35.275604l-86.2677 0z" fill-rule="evenodd"></path><path fill="#000000" d="m572.84814 180.85008l0 -2.875l2.890625 0l0 2.875l-2.890625 0zm11.851257 0l0 -2.875l2.890625 0l0 2.875l-2.890625 0zm11.851318 0l0 -2.875l2.890625 0l0 2.875l-2.890625 0z" fill-rule="nonzero"></path><path fill="#000000" fill-opacity="0.0" d="m133.5463 177.00787l67.46457 0" fill-rule="evenodd"></path><path stroke="#000000" stroke-width="2.0" stroke-linejoin="round" stroke-linecap="butt" d="m133.5463 177.00787l55.46457 0" fill-rule="evenodd"></path><path fill="#000000" stroke="#000000" stroke-width="2.0" stroke-linecap="butt" d="m189.01086 180.31134l9.076202 -3.3034668l-9.076202 -3.3034668z" fill-rule="evenodd"></path><path fill="#000000" fill-opacity="0.0" d="m308.55606 177.00787l67.46457 0" fill-rule="evenodd"></path><path stroke="#000000" stroke-width="2.0" stroke-linejoin="round" stroke-linecap="butt" d="m308.55603 177.00787l55.4646 0" fill-rule="evenodd"></path><path fill="#000000" stroke="#000000" stroke-width="2.0" stroke-linecap="butt" d="m364.02063 180.31134l9.076202 -3.3034668l-9.076202 -3.3034668z" fill-rule="evenodd"></path></g></svg>

