<?xml version="1.0" standalone="yes"?>

<svg version="1.1" viewBox="0.0 0.0 720.0 540.0" fill="none" stroke="none" stroke-linecap="square" stroke-miterlimit="10" xmlns="http://www.w3.org/2000/svg" xmlns:xlink="http://www.w3.org/1999/xlink"><clipPath id="p.0"><path d="m0 0l720.0 0l0 540.0l-720.0 0l0 -540.0z" clip-rule="nonzero"></path></clipPath><g clip-path="url(#p.0)"><path fill="#000000" fill-opacity="0.0" d="m0 0l720.0 0l0 540.0l-720.0 0z" fill-rule="evenodd"></path><path fill="#000000" fill-opacity="0.0" d="m218.49832 178.00787l68.944885 0" fill-rule="evenodd"></path><path stroke="#000000" stroke-width="2.0" stroke-linejoin="round" stroke-linecap="butt" d="m218.49832 178.00787l56.944885 0" fill-rule="evenodd"></path><path fill="#000000" stroke="#000000" stroke-width="2.0" stroke-linecap="butt" d="m275.4432 181.31134l9.076202 -3.3034668l-9.076202 -3.3034668z" fill-rule="evenodd"></path><path fill="#e6b8af" d="m91.359116 266.66425l0 0c0 -5.337433 4.326828 -9.664246 9.664238 -9.664246l129.92471 0c2.5631256 0 5.0212555 1.0181885 6.8336487 2.830597c1.8123932 1.8123779 2.830597 4.2705383 2.830597 6.8336487l0 38.65576c0 5.337433 -4.326828 9.664246 -9.664246 9.664246l-129.92471 0l0 0c-5.33741 0 -9.664238 -4.3268127 -9.664238 -9.664246z" fill-rule="evenodd"></path><path stroke="#000000" stroke-width="2.0" stroke-linejoin="round" stroke-linecap="butt" d="m91.359116 266.66425l0 0c0 -5.337433 4.326828 -9.664246 9.664238 -9.664246l129.92471 0c2.5631256 0 5.0212555 1.0181885 6.8336487 2.830597c1.8123932 1.8123779 2.830597 4.2705383 2.830597 6.8336487l0 38.65576c0 5.337433 -4.326828 9.664246 -9.664246 9.664246l-129.92471 0l0 0c-5.33741 0 -9.664238 -4.3268127 -9.664238 -9.664246z" fill-rule="evenodd"></path><path fill="#222222" d="m104.48655 296.69336l0 -17.375l3.671875 0l0 1.375l-2.015625 0l0 14.609375l2.015625 0l0 1.390625l-3.671875 0z" fill-rule="nonzero"></path><path fill="#222222" d="m110.87298 292.9121l-1.03125 -9.859375l1.625 0l0.4375 4.4375l0.1875 2.484375q0.015625 0.28125 0.046875 1.125q0.28125 -0.953125 0.46875 -1.453125q0.203125 -0.515625 0.625 -1.453125l2.34375 -5.140625l1.828125 0l0.328125 4.9375q0.078125 1.125 0.09375 2.984375q0.46875 -1.234375 1.515625 -3.4375l2.109375 -4.484375l1.6875 0l-4.8125 9.859375l-1.75 0l-0.375 -5.78125q-0.03125 -0.53125 -0.046875 -2.09375q-0.390625 0.984375 -0.90625 2.140625l-2.609375 5.734375l-1.765625 0z" fill-rule="nonzero"></path><path fill="#222222" d="m124.720924 299.05273l-0.171875 0.859375q-0.375 0.109375 -0.734375 0.109375q-0.640625 0 -1.015625 -0.3125q-0.28125 -0.234375 -0.28125 -0.640625q0 -0.203125 0.15625 -0.9375l0.75 -3.625l-0.828125 0l0.171875 -0.8125l0.828125 0l0.328125 -1.53125l1.203125 -0.734375l-0.46875 2.265625l1.046875 0l-0.171875 0.8125l-1.046875 0l-0.71875 3.4375q-0.140625 0.65625 -0.140625 0.796875q0 0.1875 0.109375 0.28125q0.109375 0.09375 0.359375 0.09375q0.359375 0 0.625 -0.0625z" fill-rule="nonzero"></path><path fill="#222222" d="m132.98471 292.9121l-1.03125 -9.859375l1.625 0l0.4375 4.4375l0.1875 2.484375q0.015625 0.28125 0.046875 1.125q0.28125 -0.953125 0.46875 -1.453125q0.203125 -0.515625 0.625 -1.453125l2.34375 -5.140625l1.828125 0l0.328125 4.9375q0.078125 1.125 0.09375 2.984375q0.46875 -1.234375 1.515625 -3.4375l2.109375 -4.484375l1.6875 0l-4.8125 9.859375l-1.75 0l-0.375 -5.78125q-0.03125 -0.53125 -0.046875 -2.09375q-0.390625 0.984375 -0.90625 2.140625l-2.609375 5.734375l-1.765625 0z" fill-rule="nonzero"></path><path fill="#222222" d="m146.83266 299.05273l-0.171875 0.859375q-0.375 0.109375 -0.734375 0.109375q-0.640625 0 -1.015625 -0.3125q-0.28125 -0.234375 -0.28125 -0.640625q0 -0.203125 0.15625 -0.9375l0.75 -3.625l-0.828125 0l0.171875 -0.8125l0.828125 0l0.328125 -1.53125l1.203125 -0.734375l-0.46875 2.265625l1.046875 0l-0.171875 0.8125l-1.046875 0l-0.71875 3.4375q-0.140625 0.65625 -0.140625 0.796875q0 0.1875 0.109375 0.28125q0.109375 0.09375 0.359375 0.09375q0.359375 0 0.625 -0.0625zm4.002365 -0.53125l0 -2.359375l-2.34375 0l0 -0.984375l2.34375 0l0 -2.328125l0.984375 0l0 2.328125l2.34375 0l0 0.984375l-2.34375 0l0 2.359375l-0.984375 0zm6.7319336 1.390625l1.3593903 -6.484375q-0.87501526 0.6875 -2.4687653 1.109375l0.1875 -0.96875q0.796875 -0.3125 1.5625153 -0.8125q0.78125 -0.515625 1.15625 -0.90625q0.234375 -0.234375 0.453125 -0.5625l0.609375 0l-1.796875 8.625l-1.0625153 0zm9.200653 0l0.25 -1.203125l1.203125 0l-0.25 1.203125l-1.203125 0zm4.015625 0l0.25 -1.203125l1.203125 0l-0.25 1.203125l-1.203125 0zm4.015625 0l0.25 -1.203125l1.1875 0l-0.25 1.203125l-1.1875 0z" fill-rule="nonzero"></path><path fill="#222222" d="m183.44165 292.9121l-1.03125 -9.859375l1.625 0l0.4375 4.4375l0.1875 2.484375q0.015625 0.28125 0.046875 1.125q0.28125 -0.953125 0.46875 -1.453125q0.203125 -0.515625 0.625 -1.453125l2.34375 -5.140625l1.828125 0l0.328125 4.9375q0.078125 1.125 0.09375 2.984375q0.46875 -1.234375 1.515625 -3.4375l2.109375 -4.484375l1.6875 0l-4.8125 9.859375l-1.75 0l-0.375 -5.78125q-0.03125 -0.53125 -0.046875 -2.09375q-0.390625 0.984375 -0.90625 2.140625l-2.609375 5.734375l-1.765625 0z" fill-rule="nonzero"></path><path fill="#222222" d="m197.2896 299.05273l-0.171875 0.859375q-0.375 0.109375 -0.734375 0.109375q-0.640625 0 -1.015625 -0.3125q-0.28125 -0.234375 -0.28125 -0.640625q0 -0.203125 0.15625 -0.9375l0.75 -3.625l-0.828125 0l0.171875 -0.8125l0.828125 0l0.328125 -1.53125l1.203125 -0.734375l-0.46875 2.265625l1.046875 0l-0.171875 0.8125l-1.046875 0l-0.71875 3.4375q-0.140625 0.65625 -0.140625 0.796875q0 0.1875 0.109375 0.28125q0.109375 0.09375 0.359375 0.09375q0.359375 0 0.625 -0.0625zm4.002365 -0.53125l0 -2.359375l-2.34375 0l0 -0.984375l2.34375 0l0 -2.328125l0.984375 0l0 2.328125l2.34375 0l0 0.984375l-2.34375 0l0 2.359375l-0.984375 0zm4.341324 -0.734375l1.0625 -0.0625q0 0.453125 0.140625 0.78125q0.140625 0.3125 0.515625 0.515625q0.375 0.203125 0.875 0.203125q0.703125 0 1.046875 -0.28125q0.359375 -0.28125 0.359375 -0.65625q0 -0.28125 -0.203125 -0.515625q-0.21875 -0.25 -1.0625 -0.609375q-0.84375 -0.359375 -1.078125 -0.515625q-0.390625 -0.234375 -0.59375 -0.5625q-0.1875 -0.328125 -0.1875 -0.75q0 -0.734375 0.578125 -1.25q0.59375 -0.53125 1.640625 -0.53125q1.171875 0 1.78125 0.546875q0.625 0.53125 0.640625 1.421875l-1.03125 0.0625q-0.03125 -0.5625 -0.40625 -0.890625q-0.375 -0.328125 -1.0625 -0.328125q-0.546875 0 -0.859375 0.25q-0.296875 0.25 -0.296875 0.546875q0 0.296875 0.265625 0.515625q0.171875 0.15625 0.90625 0.46875q1.21875 0.53125 1.53125 0.828125q0.515625 0.5 0.515625 1.1875q0 0.46875 -0.296875 0.921875q-0.28125 0.4375 -0.859375 0.703125q-0.578125 0.265625 -1.375 0.265625q-1.078125 0 -1.828125 -0.53125q-0.765625 -0.53125 -0.71875 -1.734375zm6.281143 -0.453125l0.21875 -1.0625l3.234375 0l-0.21875 1.0625l-3.234375 0zm6.4698486 2.578125l1.359375 -6.484375q-0.875 0.6875 -2.46875 1.109375l0.1875 -0.96875q0.796875 -0.3125 1.5625 -0.8125q0.78125 -0.515625 1.15625 -0.90625q0.234375 -0.234375 0.453125 -0.5625l0.609375 0l-1.796875 8.625l-1.0625 0z" fill-rule="nonzero"></path><path fill="#222222" d="m226.45757 296.69336l-3.6875 0l0 -1.390625l2.015625 0l0 -14.609375l-2.015625 0l0 -1.375l3.6875 0l0 17.375z" fill-rule="nonzero"></path><path fill="#000000" fill-opacity="0.0" d="m165.9857 168.51181l0 -57.984253" fill-rule="evenodd"></path><path stroke="#000000" stroke-width="2.0" stroke-linejoin="round" stroke-linecap="butt" d="m165.9857 168.51181l0 -45.984253" fill-rule="evenodd"></path><path fill="#000000" stroke="#000000" stroke-width="2.0" stroke-linecap="butt" d="m169.28917 122.52756l-3.3034668 -9.076195l-3.3034668 9.076195z" fill-rule="evenodd"></path><path fill="#000000" fill-opacity="0.0" d="m165.9857 257.0l0 -49.984253" fill-rule="evenodd"></path><path stroke="#000000" stroke-width="2.0" stroke-linejoin="round" stroke-linecap="butt" d="m165.9857 257.0l0 -37.984253" fill-rule="evenodd"></path><path fill="#000000" stroke="#000000" stroke-width="2.0" stroke-linecap="butt" d="m169.28917 219.01575l-3.3034668 -9.076187l-3.3034668 9.076187z" fill-rule="evenodd"></path><path fill="#c9daf8" d="m113.47311 149.0l0 0c0 -4.8828125E-4 3.8909912E-4 -8.69751E-4 8.69751E-4 -8.69751E-4l105.024345 8.69751E-4c2.2888184E-4 0 4.4250488E-4 9.1552734E-5 6.1035156E-4 2.593994E-4c1.6784668E-4 1.6784668E-4 2.593994E-4 3.8146973E-4 2.593994E-4 6.1035156E-4l-8.69751E-4 58.014877c0 4.8828125E-4 -3.9672852E-4 8.69751E-4 -8.8500977E-4 8.69751E-4l-105.02433 -8.69751E-4l0 0c-4.8828125E-4 0 -8.773804E-4 -3.9672852E-4 -8.773804E-4 -8.69751E-4z" fill-rule="evenodd"></path><path stroke="#1155cc" stroke-width="2.0" stroke-linejoin="round" stroke-linecap="butt" d="m113.47311 149.0l0 0c0 -4.8828125E-4 3.8909912E-4 -8.69751E-4 8.69751E-4 -8.69751E-4l105.024345 8.69751E-4c2.2888184E-4 0 4.4250488E-4 9.1552734E-5 6.1035156E-4 2.593994E-4c1.6784668E-4 1.6784668E-4 2.593994E-4 3.8146973E-4 2.593994E-4 6.1035156E-4l-8.69751E-4 58.014877c0 4.8828125E-4 -3.9672852E-4 8.69751E-4 -8.8500977E-4 8.69751E-4l-105.02433 -8.69751E-4l0 0c-4.8828125E-4 0 -8.773804E-4 -3.9672852E-4 -8.773804E-4 -8.69751E-4z" fill-rule="evenodd"></path><path fill="#1155cc" d="m138.57092 185.48787l0 -14.90625l3.03125 0l0 12.375l7.546875 0l0 2.53125l-10.578125 0zm12.184326 -4.890625l2.953125 -0.28125q0.265625 1.484375 1.078125 2.1875q0.8125 0.6875 2.203125 0.6875q1.453125 0 2.203125 -0.609375q0.75 -0.625 0.75 -1.46875q0 -0.53125 -0.3125 -0.90625q-0.3125 -0.375 -1.09375 -0.640625q-0.53125 -0.1875 -2.4375 -0.65625q-2.4375 -0.609375 -3.421875 -1.484375q-1.390625 -1.25 -1.390625 -3.03125q0 -1.15625 0.65625 -2.15625q0.65625 -1.0 1.875 -1.515625q1.234375 -0.515625 2.953125 -0.515625q2.84375 0 4.265625 1.234375q1.4375 1.234375 1.5 3.3125l-3.03125 0.125q-0.1875 -1.15625 -0.828125 -1.65625q-0.640625 -0.515625 -1.9375 -0.515625q-1.3125 0 -2.0625 0.546875q-0.484375 0.34375 -0.484375 0.9375q0 0.53125 0.453125 0.90625q0.578125 0.484375 2.78125 1.015625q2.21875 0.515625 3.28125 1.078125q1.0625 0.5625 1.65625 1.53125q0.609375 0.96875 0.609375 2.390625q0 1.28125 -0.71875 2.421875q-0.71875 1.125 -2.03125 1.671875q-1.3125 0.546875 -3.265625 0.546875q-2.859375 0 -4.390625 -1.3125q-1.515625 -1.328125 -1.8125 -3.84375zm18.366318 4.890625l0 -12.484375l-4.453125 0l0 -2.546875l11.9375 0l0 2.546875l-4.4375 0l0 12.484375l-3.046875 0zm9.606186 0l0 -15.03125l4.546875 0l2.71875 10.25l2.703125 -10.25l4.546875 0l0 15.03125l-2.8125 0l0 -11.828125l-2.984375 11.828125l-2.921875 0l-2.96875 -11.828125l0 11.828125l-2.828125 0z" fill-rule="nonzero"></path><path fill="#b6d7a8" d="m91.359116 62.207542l0 0c0 -5.33741 4.326828 -9.664234 9.664238 -9.664234l129.92471 0c2.5631256 0 5.0212555 1.0181923 6.8336487 2.8305893c1.8123932 1.8123932 2.830597 4.2705307 2.830597 6.833645l0 38.655785c0 5.33741 -4.326828 9.66423 -9.664246 9.66423l-129.92471 0l0 0c-5.33741 0 -9.664238 -4.3268204 -9.664238 -9.66423z" fill-rule="evenodd"></path><path stroke="#000000" stroke-width="2.0" stroke-linejoin="round" stroke-linecap="butt" d="m91.359116 62.207542l0 0c0 -5.33741 4.326828 -9.664234 9.664238 -9.664234l129.92471 0c2.5631256 0 5.0212555 1.0181923 6.8336487 2.8305893c1.8123932 1.8123932 2.830597 4.2705307 2.830597 6.833645l0 38.655785c0 5.33741 -4.326828 9.66423 -9.664246 9.66423l-129.92471 0l0 0c-5.33741 0 -9.664238 -4.3268204 -9.664238 -9.66423z" fill-rule="evenodd"></path><path fill="#222222" d="m104.48655 92.23668l0 -17.375l3.671875 0l0 1.375l-2.015625 0l0 14.609375l2.015625 0l0 1.390625l-3.671875 0z" fill-rule="nonzero"></path><path fill="#222222" d="m110.87298 88.45543l-1.03125 -9.859375l1.625 0l0.4375 4.4375l0.1875 2.484375q0.015625 0.28125 0.046875 1.125q0.28125 -0.953125 0.46875 -1.453125q0.203125 -0.515625 0.625 -1.453125l2.34375 -5.140625l1.828125 0l0.328125 4.9375q0.078125 1.125 0.09375 2.984375q0.46875 -1.234375 1.515625 -3.4375l2.109375 -4.484375l1.6875 0l-4.8125 9.859375l-1.75 0l-0.375 -5.78125q-0.03125 -0.53125 -0.046875 -2.09375q-0.390625 0.984375 -0.90625 2.140625l-2.609375 5.734375l-1.765625 0z" fill-rule="nonzero"></path><path fill="#222222" d="m124.720924 94.596054l-0.171875 0.859375q-0.375 0.109375 -0.734375 0.109375q-0.640625 0 -1.015625 -0.3125q-0.28125 -0.234375 -0.28125 -0.640625q0 -0.203125 0.15625 -0.9375l0.75 -3.625l-0.828125 0l0.171875 -0.8125l0.828125 0l0.328125 -1.53125l1.203125 -0.734375l-0.46875 2.265625l1.046875 0l-0.171875 0.8125l-1.046875 0l-0.71875 3.4375q-0.140625 0.65625 -0.140625 0.796875q0 0.1875 0.109375 0.28125q0.109375 0.09375 0.359375 0.09375q0.359375 0 0.625 -0.0625z" fill-rule="nonzero"></path><path fill="#222222" d="m132.98471 88.45543l-1.03125 -9.859375l1.625 0l0.4375 4.4375l0.1875 2.484375q0.015625 0.28125 0.046875 1.125q0.28125 -0.953125 0.46875 -1.453125q0.203125 -0.515625 0.625 -1.453125l2.34375 -5.140625l1.828125 0l0.328125 4.9375q0.078125 1.125 0.09375 2.984375q0.46875 -1.234375 1.515625 -3.4375l2.109375 -4.484375l1.6875 0l-4.8125 9.859375l-1.75 0l-0.375 -5.78125q-0.03125 -0.53125 -0.046875 -2.09375q-0.390625 0.984375 -0.90625 2.140625l-2.609375 5.734375l-1.765625 0z" fill-rule="nonzero"></path><path fill="#222222" d="m146.83266 94.596054l-0.171875 0.859375q-0.375 0.109375 -0.734375 0.109375q-0.640625 0 -1.015625 -0.3125q-0.28125 -0.234375 -0.28125 -0.640625q0 -0.203125 0.15625 -0.9375l0.75 -3.625l-0.828125 0l0.171875 -0.8125l0.828125 0l0.328125 -1.53125l1.203125 -0.734375l-0.46875 2.265625l1.046875 0l-0.171875 0.8125l-1.046875 0l-0.71875 3.4375q-0.140625 0.65625 -0.140625 0.796875q0 0.1875 0.109375 0.28125q0.109375 0.09375 0.359375 0.09375q0.359375 0 0.625 -0.0625zm4.002365 -0.53125l0 -2.359375l-2.34375 0l0 -0.984375l2.34375 0l0 -2.328125l0.984375 0l0 2.328125l2.34375 0l0 0.984375l-2.34375 0l0 2.359375l-0.984375 0zm6.7319336 1.390625l1.3593903 -6.484375q-0.87501526 0.6875 -2.4687653 1.109375l0.1875 -0.96875q0.796875 -0.3125 1.5625153 -0.8125q0.78125 -0.515625 1.15625 -0.90625q0.234375 -0.234375 0.453125 -0.5625l0.609375 0l-1.796875 8.625l-1.0625153 0zm9.200653 0l0.25 -1.203125l1.203125 0l-0.25 1.203125l-1.203125 0zm4.015625 0l0.25 -1.203125l1.203125 0l-0.25 1.203125l-1.203125 0zm4.015625 0l0.25 -1.203125l1.1875 0l-0.25 1.203125l-1.1875 0z" fill-rule="nonzero"></path><path fill="#222222" d="m183.44165 88.45543l-1.03125 -9.859375l1.625 0l0.4375 4.4375l0.1875 2.484375q0.015625 0.28125 0.046875 1.125q0.28125 -0.953125 0.46875 -1.453125q0.203125 -0.515625 0.625 -1.453125l2.34375 -5.140625l1.828125 0l0.328125 4.9375q0.078125 1.125 0.09375 2.984375q0.46875 -1.234375 1.515625 -3.4375l2.109375 -4.484375l1.6875 0l-4.8125 9.859375l-1.75 0l-0.375 -5.78125q-0.03125 -0.53125 -0.046875 -2.09375q-0.390625 0.984375 -0.90625 2.140625l-2.609375 5.734375l-1.765625 0z" fill-rule="nonzero"></path><path fill="#222222" d="m197.2896 94.596054l-0.171875 0.859375q-0.375 0.109375 -0.734375 0.109375q-0.640625 0 -1.015625 -0.3125q-0.28125 -0.234375 -0.28125 -0.640625q0 -0.203125 0.15625 -0.9375l0.75 -3.625l-0.828125 0l0.171875 -0.8125l0.828125 0l0.328125 -1.53125l1.203125 -0.734375l-0.46875 2.265625l1.046875 0l-0.171875 0.8125l-1.046875 0l-0.71875 3.4375q-0.140625 0.65625 -0.140625 0.796875q0 0.1875 0.109375 0.28125q0.109375 0.09375 0.359375 0.09375q0.359375 0 0.625 -0.0625zm4.002365 -0.53125l0 -2.359375l-2.34375 0l0 -0.984375l2.34375 0l0 -2.328125l0.984375 0l0 2.328125l2.34375 0l0 0.984375l-2.34375 0l0 2.359375l-0.984375 0zm4.341324 -0.734375l1.0625 -0.0625q0 0.453125 0.140625 0.78125q0.140625 0.3125 0.515625 0.515625q0.375 0.203125 0.875 0.203125q0.703125 0 1.046875 -0.28125q0.359375 -0.28125 0.359375 -0.65625q0 -0.28125 -0.203125 -0.515625q-0.21875 -0.25 -1.0625 -0.609375q-0.84375 -0.359375 -1.078125 -0.515625q-0.390625 -0.234375 -0.59375 -0.5625q-0.1875 -0.328125 -0.1875 -0.75q0 -0.734375 0.578125 -1.25q0.59375 -0.53125 1.640625 -0.53125q1.171875 0 1.78125 0.546875q0.625 0.53125 0.640625 1.421875l-1.03125 0.0625q-0.03125 -0.5625 -0.40625 -0.890625q-0.375 -0.328125 -1.0625 -0.328125q-0.546875 0 -0.859375 0.25q-0.296875 0.25 -0.296875 0.546875q0 0.296875 0.265625 0.515625q0.171875 0.15625 0.90625 0.46875q1.21875 0.53125 1.53125 0.828125q0.515625 0.5 0.515625 1.1875q0 0.46875 -0.296875 0.921875q-0.28125 0.4375 -0.859375 0.703125q-0.578125 0.265625 -1.375 0.265625q-1.078125 0 -1.828125 -0.53125q-0.765625 -0.53125 -0.71875 -1.734375zm6.281143 -0.453125l0.21875 -1.0625l3.234375 0l-0.21875 1.0625l-3.234375 0zm6.4698486 2.578125l1.359375 -6.484375q-0.875 0.6875 -2.46875 1.109375l0.1875 -0.96875q0.796875 -0.3125 1.5625 -0.8125q0.78125 -0.515625 1.15625 -0.90625q0.234375 -0.234375 0.453125 -0.5625l0.609375 0l-1.796875 8.625l-1.0625 0z" fill-rule="nonzero"></path><path fill="#222222" d="m226.45757 92.23668l-3.6875 0l0 -1.390625l2.015625 0l0 -14.609375l-2.015625 0l0 -1.375l3.6875 0l0 17.375z" fill-rule="nonzero"></path><path fill="#000000" fill-opacity="0.0" d="m9.5178795 263.7244l81.82677 0l0 44.53546l-81.82677 0z" fill-rule="evenodd"></path><path fill="#990000" d="m25.812613 293.2044l0 -15.03125l3.03125 0l0 15.03125l-3.03125 0zm15.894392 0l-2.875 0l0 -5.5625q0 -1.765625 -0.1875 -2.28125q-0.1875 -0.515625 -0.609375 -0.796875q-0.40625 -0.296875 -0.984375 -0.296875q-0.75 0 -1.34375 0.421875q-0.59375 0.40625 -0.8125 1.09375q-0.21875 0.671875 -0.21875 2.484375l0 4.9375l-2.890623 0l0 -10.890625l2.671873 0l0 1.59375q1.4375 -1.84375 3.59375 -1.84375q0.953125 0 1.734375 0.34375q0.796875 0.34375 1.203125 0.890625q0.40625 0.53125 0.5625 1.203125q0.15625 0.671875 0.15625 1.9375l0 6.765625zm3.0437012 -10.890625l2.6875 0l0 1.59375q0.53125 -0.8125 1.421875 -1.328125q0.890625 -0.515625 1.96875 -0.515625q1.90625 0 3.21875 1.5q1.328125 1.484375 1.328125 4.140625q0 2.71875 -1.34375 4.234375q-1.328125 1.515625 -3.21875 1.515625q-0.90625 0 -1.640625 -0.359375q-0.734375 -0.359375 -1.53125 -1.234375l0 5.484375l-2.890625 0l0 -15.03125zm2.859375 5.265625q0 1.828125 0.71875 2.703125q0.734375 0.875 1.78125 0.875q1.0 0 1.65625 -0.796875q0.671875 -0.8125 0.671875 -2.640625q0 -1.71875 -0.6875 -2.546875q-0.6875 -0.828125 -1.6875 -0.828125q-1.0625 0 -1.765625 0.8125q-0.6875 0.8125 -0.6875 2.421875zm17.418697 5.625l0 -1.625q-0.59375 0.859375 -1.5624962 1.375q-0.96875 0.5 -2.046875 0.5q-1.09375 0 -1.96875 -0.484375q-0.875 -0.484375 -1.265625 -1.359375q-0.375 -0.875 -0.375 -2.40625l0 -6.890625l2.875 0l0 5.0q0 2.296875 0.15625 2.828125q0.15625 0.515625 0.578125 0.8125q0.421875 0.296875 1.0625 0.296875q0.75 0 1.328125 -0.40625q0.5937462 -0.40625 0.7968712 -1.0q0.21875 -0.59375 0.21875 -2.9375l0 -4.59375l2.875 0l0 10.890625l-2.671875 0zm10.856201 -10.890625l0 2.296875l-1.96875 0l0 4.390625q0 1.328125 0.046875 1.546875q0.0625 0.21875 0.265625 0.375q0.203125 0.140625 0.484375 0.140625q0.40625 0 1.15625 -0.28125l0.25 2.234375q-1.0 0.4375 -2.28125 0.4375q-0.765625 0 -1.390625 -0.265625q-0.625 -0.265625 -0.921875 -0.671875q-0.296875 -0.421875 -0.40625 -1.125q-0.09375 -0.5 -0.09375 -2.03125l0 -4.75l-1.328125 0l0 -2.296875l1.328125 0l0 -2.15625l2.890625 -1.6875l0 3.84375l1.96875 0z" fill-rule="nonzero"></path><path fill="#000000" fill-opacity="0.0" d="m-7.7322836 59.267715l99.08662 0l0 44.53543l-99.08662 0z" fill-rule="evenodd"></path><path fill="#38761d" d="m7.777875 81.32584q0 -2.296875 0.6875 -3.859375q0.515625 -1.140625 1.40625 -2.046875q0.890625 -0.921875 1.9375 -1.359375q1.40625 -0.59375 3.25 -0.59375q3.312501 0 5.312501 2.0625q2.0 2.046875 2.0 5.71875q0 3.640625 -1.984375 5.703125q-1.984375 2.046875 -5.296876 2.046875q-3.34375 0 -5.328125 -2.03125q-1.984375 -2.046875 -1.984375 -5.640625zm3.140625 -0.109375q0 2.5625 1.171875 3.875q1.1875 1.3125 3.0 1.3125q1.812501 0 2.968751 -1.296875q1.171875 -1.3125 1.171875 -3.921875q0 -2.59375 -1.140625 -3.859375q-1.125 -1.265625 -3.000001 -1.265625q-1.875 0 -3.03125 1.28125q-1.140625 1.28125 -1.140625 3.875zm21.214706 7.53125l0 -1.625q-0.5937481 0.859375 -1.5624981 1.375q-0.96875 0.5 -2.046875 0.5q-1.09375 0 -1.96875 -0.484375q-0.875 -0.484375 -1.265625 -1.359375q-0.375 -0.875 -0.375 -2.40625l0 -6.890625l2.875 0l0 5.0q0 2.296875 0.15625 2.828125q0.15625 0.515625 0.578125 0.8125q0.421875 0.296875 1.0625 0.296875q0.75 0 1.328125 -0.40625q0.59375 -0.40625 0.796875 -1.0q0.21875 -0.59375 0.21875 -2.9375l0 -4.59375l2.874998 0l0 10.890625l-2.671875 0zm10.856201 -10.890625l0 2.296875l-1.96875 0l0 4.390625q0 1.328125 0.046875 1.546875q0.0625 0.21875 0.265625 0.375q0.203125 0.140625 0.484375 0.140625q0.40625 0 1.15625 -0.28125l0.25 2.234375q-1.0 0.4375 -2.28125 0.4375q-0.765625 0 -1.390625 -0.265625q-0.625 -0.265625 -0.921875 -0.671875q-0.296875 -0.421875 -0.40625 -1.125q-0.09375 -0.5 -0.09375 -2.03125l0 -4.75l-1.328125 0l0 -2.296875l1.328125 0l0 -2.15625l2.890625 -1.6875l0 3.84375l1.96875 0zm2.0243073 0l2.6875 0l0 1.59375q0.53125 -0.8125 1.421875 -1.328125q0.890625 -0.515625 1.96875 -0.515625q1.90625 0 3.21875 1.5q1.328125 1.484375 1.328125 4.140625q0 2.71875 -1.34375 4.234375q-1.328125 1.515625 -3.21875 1.515625q-0.90625 0 -1.640625 -0.359375q-0.734375 -0.359375 -1.53125 -1.234375l0 5.484375l-2.890625 0l0 -15.03125zm2.859375 5.265625q0 1.828125 0.71875 2.703125q0.734375 0.875 1.78125 0.875q1.0 0 1.65625 -0.796875q0.671875 -0.8125 0.671875 -2.640625q0 -1.71875 -0.6875 -2.546875q-0.6875 -0.828125 -1.6875 -0.828125q-1.0625 0 -1.765625 0.8125q-0.6875 0.8125 -0.6875 2.421875zm17.418705 5.625l0 -1.625q-0.59375 0.859375 -1.5625 1.375q-0.96875 0.5 -2.046875 0.5q-1.09375 0 -1.96875 -0.484375q-0.875 -0.484375 -1.265625 -1.359375q-0.375 -0.875 -0.375 -2.40625l0 -6.890625l2.875 0l0 5.0q0 2.296875 0.15625 2.828125q0.15625 0.515625 0.578125 0.8125q0.421875 0.296875 1.0625 0.296875q0.75 0 1.328125 -0.40625q0.59375 -0.40625 0.796875 -1.0q0.21875 -0.59375 0.21875 -2.9375l0 -4.59375l2.875 0l0 10.890625l-2.671875 0zm10.856201 -10.890625l0 2.296875l-1.96875 0l0 4.390625q0 1.328125 0.046875 1.546875q0.0625 0.21875 0.265625 0.375q0.203125 0.140625 0.484375 0.140625q0.40625 0 1.15625 -0.28125l0.25 2.234375q-1.0 0.4375 -2.28125 0.4375q-0.765625 0 -1.390625 -0.265625q-0.625 -0.265625 -0.921875 -0.671875q-0.296875 -0.421875 -0.40625 -1.125q-0.09375 -0.5 -0.09375 -2.03125l0 -4.75l-1.328125 0l0 -2.296875l1.328125 0l0 -2.15625l2.890625 -1.6875l0 3.84375l1.96875 0z" fill-rule="nonzero"></path><path fill="#e6b8af" d="m265.3442 266.66425l0 0c0 -5.337433 4.3268127 -9.664246 9.664215 -9.664246l129.92471 0c2.5631104 0 5.02124 1.0181885 6.8336487 2.830597c1.8124084 1.8123779 2.830597 4.2705383 2.830597 6.8336487l0 38.65576c0 5.337433 -4.3268433 9.664246 -9.664246 9.664246l-129.92471 0l0 0c-5.3374023 0 -9.664215 -4.3268127 -9.664215 -9.664246z" fill-rule="evenodd"></path><path stroke="#000000" stroke-width="2.0" stroke-linejoin="round" stroke-linecap="butt" d="m265.3442 266.66425l0 0c0 -5.337433 4.3268127 -9.664246 9.664215 -9.664246l129.92471 0c2.5631104 0 5.02124 1.0181885 6.8336487 2.830597c1.8124084 1.8123779 2.830597 4.2705383 2.830597 6.8336487l0 38.65576c0 5.337433 -4.3268433 9.664246 -9.664246 9.664246l-129.92471 0l0 0c-5.3374023 0 -9.664215 -4.3268127 -9.664215 -9.664246z" fill-rule="evenodd"></path><path fill="#222222" d="m278.47162 296.69336l0 -17.375l3.671875 0l0 1.375l-2.015625 0l0 14.609375l2.015625 0l0 1.390625l-3.671875 0z" fill-rule="nonzero"></path><path fill="#222222" d="m284.85806 292.9121l-1.03125 -9.859375l1.625 0l0.4375 4.4375l0.1875 2.484375q0.015625 0.28125 0.046875 1.125q0.28125 -0.953125 0.46875 -1.453125q0.203125 -0.515625 0.625 -1.453125l2.34375 -5.140625l1.828125 0l0.328125 4.9375q0.078125 1.125 0.09375 2.984375q0.46875 -1.234375 1.515625 -3.4375l2.109375 -4.484375l1.6875 0l-4.8125 9.859375l-1.75 0l-0.375 -5.78125q-0.03125 -0.53125 -0.046875 -2.09375q-0.390625 0.984375 -0.90625 2.140625l-2.609375 5.734375l-1.765625 0z" fill-rule="nonzero"></path><path fill="#222222" d="m298.706 299.05273l-0.171875 0.859375q-0.375 0.109375 -0.734375 0.109375q-0.640625 0 -1.015625 -0.3125q-0.28125 -0.234375 -0.28125 -0.640625q0 -0.203125 0.15625 -0.9375l0.75 -3.625l-0.828125 0l0.171875 -0.8125l0.828125 0l0.328125 -1.53125l1.203125 -0.734375l-0.46875 2.265625l1.046875 0l-0.171875 0.8125l-1.046875 0l-0.71875 3.4375q-0.140625 0.65625 -0.140625 0.796875q0 0.1875 0.109375 0.28125q0.109375 0.09375 0.359375 0.09375q0.359375 0 0.625 -0.0625z" fill-rule="nonzero"></path><path fill="#222222" d="m306.9698 292.9121l-1.03125 -9.859375l1.625 0l0.4375 4.4375l0.1875 2.484375q0.015625 0.28125 0.046875 1.125q0.28125 -0.953125 0.46875 -1.453125q0.203125 -0.515625 0.625 -1.453125l2.34375 -5.140625l1.828125 0l0.328125 4.9375q0.078125 1.125 0.09375 2.984375q0.46875 -1.234375 1.515625 -3.4375l2.109375 -4.484375l1.6875 0l-4.8125 9.859375l-1.75 0l-0.375 -5.78125q-0.03125 -0.53125 -0.046875 -2.09375q-0.390625 0.984375 -0.90625 2.140625l-2.609375 5.734375l-1.765625 0z" fill-rule="nonzero"></path><path fill="#222222" d="m320.81775 299.05273l-0.171875 0.859375q-0.375 0.109375 -0.734375 0.109375q-0.640625 0 -1.015625 -0.3125q-0.28125 -0.234375 -0.28125 -0.640625q0 -0.203125 0.15625 -0.9375l0.75 -3.625l-0.828125 0l0.171875 -0.8125l0.828125 0l0.328125 -1.53125l1.203125 -0.734375l-0.46875 2.265625l1.046875 0l-0.171875 0.8125l-1.046875 0l-0.71875 3.4375q-0.140625 0.65625 -0.140625 0.796875q0 0.1875 0.109375 0.28125q0.109375 0.09375 0.359375 0.09375q0.359375 0 0.625 -0.0625zm4.00235 -0.53125l0 -2.359375l-2.34375 0l0 -0.984375l2.34375 0l0 -2.328125l0.984375 0l0 2.328125l2.34375 0l0 0.984375l-2.34375 0l0 2.359375l-0.984375 0zm6.7319336 1.390625l1.359375 -6.484375q-0.875 0.6875 -2.46875 1.109375l0.1875 -0.96875q0.796875 -0.3125 1.5625 -0.8125q0.78125 -0.515625 1.15625 -0.90625q0.234375 -0.234375 0.453125 -0.5625l0.609375 0l-1.796875 8.625l-1.0625 0zm9.200653 0l0.25 -1.203125l1.203125 0l-0.25 1.203125l-1.203125 0zm4.015625 0l0.25 -1.203125l1.203125 0l-0.25 1.203125l-1.203125 0zm4.015625 0l0.25 -1.203125l1.1875 0l-0.25 1.203125l-1.1875 0z" fill-rule="nonzero"></path><path fill="#222222" d="m357.42673 292.9121l-1.03125 -9.859375l1.625 0l0.4375 4.4375l0.1875 2.484375q0.015625 0.28125 0.046875 1.125q0.28125 -0.953125 0.46875 -1.453125q0.203125 -0.515625 0.625 -1.453125l2.34375 -5.140625l1.828125 0l0.328125 4.9375q0.078125 1.125 0.09375 2.984375q0.46875 -1.234375 1.515625 -3.4375l2.109375 -4.484375l1.6875 0l-4.8125 9.859375l-1.75 0l-0.375 -5.78125q-0.03125 -0.53125 -0.046875 -2.09375q-0.390625 0.984375 -0.90625 2.140625l-2.609375 5.734375l-1.765625 0z" fill-rule="nonzero"></path><path fill="#222222" d="m371.2747 299.05273l-0.171875 0.859375q-0.375 0.109375 -0.734375 0.109375q-0.640625 0 -1.015625 -0.3125q-0.28125 -0.234375 -0.28125 -0.640625q0 -0.203125 0.15625 -0.9375l0.75 -3.625l-0.828125 0l0.171875 -0.8125l0.828125 0l0.328125 -1.53125l1.203125 -0.734375l-0.46875 2.265625l1.046875 0l-0.171875 0.8125l-1.046875 0l-0.71875 3.4375q-0.140625 0.65625 -0.140625 0.796875q0 0.1875 0.109375 0.28125q0.109375 0.09375 0.359375 0.09375q0.359375 0 0.625 -0.0625zm4.00235 -0.53125l0 -2.359375l-2.34375 0l0 -0.984375l2.34375 0l0 -2.328125l0.984375 0l0 2.328125l2.34375 0l0 0.984375l-2.34375 0l0 2.359375l-0.984375 0zm4.3413086 -0.734375l1.0625 -0.0625q0 0.453125 0.140625 0.78125q0.140625 0.3125 0.515625 0.515625q0.375 0.203125 0.875 0.203125q0.703125 0 1.046875 -0.28125q0.359375 -0.28125 0.359375 -0.65625q0 -0.28125 -0.203125 -0.515625q-0.21875 -0.25 -1.0625 -0.609375q-0.84375 -0.359375 -1.078125 -0.515625q-0.390625 -0.234375 -0.59375 -0.5625q-0.1875 -0.328125 -0.1875 -0.75q0 -0.734375 0.578125 -1.25q0.59375 -0.53125 1.640625 -0.53125q1.171875 0 1.78125 0.546875q0.625 0.53125 0.640625 1.421875l-1.03125 0.0625q-0.03125 -0.5625 -0.40625 -0.890625q-0.375 -0.328125 -1.0625 -0.328125q-0.546875 0 -0.859375 0.25q-0.296875 0.25 -0.296875 0.546875q0 0.296875 0.265625 0.515625q0.171875 0.15625 0.90625 0.46875q1.21875 0.53125 1.53125 0.828125q0.515625 0.5 0.515625 1.1875q0 0.46875 -0.296875 0.921875q-0.28125 0.4375 -0.859375 0.703125q-0.578125 0.265625 -1.375 0.265625q-1.078125 0 -1.828125 -0.53125q-0.765625 -0.53125 -0.71875 -1.734375zm6.2811584 -0.453125l0.21875 -1.0625l3.234375 0l-0.21875 1.0625l-3.234375 0zm6.4698486 2.578125l1.359375 -6.484375q-0.875 0.6875 -2.46875 1.109375l0.1875 -0.96875q0.796875 -0.3125 1.5625 -0.8125q0.78125 -0.515625 1.15625 -0.90625q0.234375 -0.234375 0.453125 -0.5625l0.609375 0l-1.796875 8.625l-1.0625 0z" fill-rule="nonzero"></path><path fill="#222222" d="m400.44263 296.69336l-3.6875 0l0 -1.390625l2.015625 0l0 -14.609375l-2.015625 0l0 -1.375l3.6875 0l0 17.375z" fill-rule="nonzero"></path><path fill="#000000" fill-opacity="0.0" d="m339.9708 168.51181l0 -57.984253" fill-rule="evenodd"></path><path stroke="#000000" stroke-width="2.0" stroke-linejoin="round" stroke-linecap="butt" d="m339.9708 168.51181l0 -45.984253" fill-rule="evenodd"></path><path fill="#000000" stroke="#000000" stroke-width="2.0" stroke-linecap="butt" d="m343.27423 122.52756l-3.3034363 -9.076195l-3.3034668 9.076195z" fill-rule="evenodd"></path><path fill="#000000" fill-opacity="0.0" d="m339.9708 257.0l0 -49.984253" fill-rule="evenodd"></path><path stroke="#000000" stroke-width="2.0" stroke-linejoin="round" stroke-linecap="butt" d="m339.9708 257.0l0 -37.984253" fill-rule="evenodd"></path><path fill="#000000" stroke="#000000" stroke-width="2.0" stroke-linecap="butt" d="m343.27423 219.01575l-3.3034363 -9.076187l-3.3034668 9.076187z" fill-rule="evenodd"></path><path fill="#c9daf8" d="m287.4582 149.0l0 0c0 -4.8828125E-4 3.6621094E-4 -8.69751E-4 8.544922E-4 -8.69751E-4l105.02435 8.69751E-4c2.1362305E-4 0 4.5776367E-4 9.1552734E-5 6.1035156E-4 2.593994E-4c1.5258789E-4 1.6784668E-4 2.4414062E-4 3.8146973E-4 2.4414062E-4 6.1035156E-4l-8.544922E-4 58.014877c0 4.8828125E-4 -3.9672852E-4 8.69751E-4 -8.8500977E-4 8.69751E-4l-105.02432 -8.69751E-4l0 0c-4.8828125E-4 0 -8.8500977E-4 -3.9672852E-4 -8.8500977E-4 -8.69751E-4z" fill-rule="evenodd"></path><path stroke="#1155cc" stroke-width="2.0" stroke-linejoin="round" stroke-linecap="butt" d="m287.4582 149.0l0 0c0 -4.8828125E-4 3.6621094E-4 -8.69751E-4 8.544922E-4 -8.69751E-4l105.02435 8.69751E-4c2.1362305E-4 0 4.5776367E-4 9.1552734E-5 6.1035156E-4 2.593994E-4c1.5258789E-4 1.6784668E-4 2.4414062E-4 3.8146973E-4 2.4414062E-4 6.1035156E-4l-8.544922E-4 58.014877c0 4.8828125E-4 -3.9672852E-4 8.69751E-4 -8.8500977E-4 8.69751E-4l-105.02432 -8.69751E-4l0 0c-4.8828125E-4 0 -8.8500977E-4 -3.9672852E-4 -8.8500977E-4 -8.69751E-4z" fill-rule="evenodd"></path><path fill="#1155cc" d="m312.556 185.48787l0 -14.90625l3.03125 0l0 12.375l7.546875 0l0 2.53125l-10.578125 0zm12.184326 -4.890625l2.953125 -0.28125q0.265625 1.484375 1.078125 2.1875q0.8125 0.6875 2.203125 0.6875q1.453125 0 2.203125 -0.609375q0.75 -0.625 0.75 -1.46875q0 -0.53125 -0.3125 -0.90625q-0.3125 -0.375 -1.09375 -0.640625q-0.53125 -0.1875 -2.4375 -0.65625q-2.4375 -0.609375 -3.421875 -1.484375q-1.390625 -1.25 -1.390625 -3.03125q0 -1.15625 0.65625 -2.15625q0.65625 -1.0 1.875 -1.515625q1.234375 -0.515625 2.953125 -0.515625q2.84375 0 4.265625 1.234375q1.4375 1.234375 1.5 3.3125l-3.03125 0.125q-0.1875 -1.15625 -0.828125 -1.65625q-0.640625 -0.515625 -1.9375 -0.515625q-1.3125 0 -2.0625 0.546875q-0.484375 0.34375 -0.484375 0.9375q0 0.53125 0.453125 0.90625q0.578125 0.484375 2.78125 1.015625q2.21875 0.515625 3.28125 1.078125q1.0625 0.5625 1.65625 1.53125q0.609375 0.96875 0.609375 2.390625q0 1.28125 -0.71875 2.421875q-0.71875 1.125 -2.03125 1.671875q-1.3125 0.546875 -3.265625 0.546875q-2.859375 0 -4.390625 -1.3125q-1.515625 -1.328125 -1.8125 -3.84375zm18.366302 4.890625l0 -12.484375l-4.453125 0l0 -2.546875l11.9375 0l0 2.546875l-4.4375 0l0 12.484375l-3.046875 0zm9.606201 0l0 -15.03125l4.546875 0l2.71875 10.25l2.703125 -10.25l4.546875 0l0 15.03125l-2.8125 0l0 -11.828125l-2.984375 11.828125l-2.921875 0l-2.96875 -11.828125l0 11.828125l-2.828125 0z" fill-rule="nonzero"></path><path fill="#b6d7a8" d="m265.3442 62.207542l0 0c0 -5.33741 4.3268127 -9.664234 9.664215 -9.664234l129.92471 0c2.5631104 0 5.02124 1.0181923 6.8336487 2.8305893c1.8124084 1.8123932 2.830597 4.2705307 2.830597 6.833645l0 38.655785c0 5.33741 -4.3268433 9.66423 -9.664246 9.66423l-129.92471 0l0 0c-5.3374023 0 -9.664215 -4.3268204 -9.664215 -9.66423z" fill-rule="evenodd"></path><path stroke="#000000" stroke-width="2.0" stroke-linejoin="round" stroke-linecap="butt" d="m265.3442 62.207542l0 0c0 -5.33741 4.3268127 -9.664234 9.664215 -9.664234l129.92471 0c2.5631104 0 5.02124 1.0181923 6.8336487 2.8305893c1.8124084 1.8123932 2.830597 4.2705307 2.830597 6.833645l0 38.655785c0 5.33741 -4.3268433 9.66423 -9.664246 9.66423l-129.92471 0l0 0c-5.3374023 0 -9.664215 -4.3268204 -9.664215 -9.66423z" fill-rule="evenodd"></path><path fill="#222222" d="m278.47162 92.23668l0 -17.375l3.671875 0l0 1.375l-2.015625 0l0 14.609375l2.015625 0l0 1.390625l-3.671875 0z" fill-rule="nonzero"></path><path fill="#222222" d="m284.85806 88.45543l-1.03125 -9.859375l1.625 0l0.4375 4.4375l0.1875 2.484375q0.015625 0.28125 0.046875 1.125q0.28125 -0.953125 0.46875 -1.453125q0.203125 -0.515625 0.625 -1.453125l2.34375 -5.140625l1.828125 0l0.328125 4.9375q0.078125 1.125 0.09375 2.984375q0.46875 -1.234375 1.515625 -3.4375l2.109375 -4.484375l1.6875 0l-4.8125 9.859375l-1.75 0l-0.375 -5.78125q-0.03125 -0.53125 -0.046875 -2.09375q-0.390625 0.984375 -0.90625 2.140625l-2.609375 5.734375l-1.765625 0z" fill-rule="nonzero"></path><path fill="#222222" d="m298.706 94.596054l-0.171875 0.859375q-0.375 0.109375 -0.734375 0.109375q-0.640625 0 -1.015625 -0.3125q-0.28125 -0.234375 -0.28125 -0.640625q0 -0.203125 0.15625 -0.9375l0.75 -3.625l-0.828125 0l0.171875 -0.8125l0.828125 0l0.328125 -1.53125l1.203125 -0.734375l-0.46875 2.265625l1.046875 0l-0.171875 0.8125l-1.046875 0l-0.71875 3.4375q-0.140625 0.65625 -0.140625 0.796875q0 0.1875 0.109375 0.28125q0.109375 0.09375 0.359375 0.09375q0.359375 0 0.625 -0.0625z" fill-rule="nonzero"></path><path fill="#222222" d="m306.9698 88.45543l-1.03125 -9.859375l1.625 0l0.4375 4.4375l0.1875 2.484375q0.015625 0.28125 0.046875 1.125q0.28125 -0.953125 0.46875 -1.453125q0.203125 -0.515625 0.625 -1.453125l2.34375 -5.140625l1.828125 0l0.328125 4.9375q0.078125 1.125 0.09375 2.984375q0.46875 -1.234375 1.515625 -3.4375l2.109375 -4.484375l1.6875 0l-4.8125 9.859375l-1.75 0l-0.375 -5.78125q-0.03125 -0.53125 -0.046875 -2.09375q-0.390625 0.984375 -0.90625 2.140625l-2.609375 5.734375l-1.765625 0z" fill-rule="nonzero"></path><path fill="#222222" d="m320.81775 94.596054l-0.171875 0.859375q-0.375 0.109375 -0.734375 0.109375q-0.640625 0 -1.015625 -0.3125q-0.28125 -0.234375 -0.28125 -0.640625q0 -0.203125 0.15625 -0.9375l0.75 -3.625l-0.828125 0l0.171875 -0.8125l0.828125 0l0.328125 -1.53125l1.203125 -0.734375l-0.46875 2.265625l1.046875 0l-0.171875 0.8125l-1.046875 0l-0.71875 3.4375q-0.140625 0.65625 -0.140625 0.796875q0 0.1875 0.109375 0.28125q0.109375 0.09375 0.359375 0.09375q0.359375 0 0.625 -0.0625zm4.00235 -0.53125l0 -2.359375l-2.34375 0l0 -0.984375l2.34375 0l0 -2.328125l0.984375 0l0 2.328125l2.34375 0l0 0.984375l-2.34375 0l0 2.359375l-0.984375 0zm6.7319336 1.390625l1.359375 -6.484375q-0.875 0.6875 -2.46875 1.109375l0.1875 -0.96875q0.796875 -0.3125 1.5625 -0.8125q0.78125 -0.515625 1.15625 -0.90625q0.234375 -0.234375 0.453125 -0.5625l0.609375 0l-1.796875 8.625l-1.0625 0zm9.200653 0l0.25 -1.203125l1.203125 0l-0.25 1.203125l-1.203125 0zm4.015625 0l0.25 -1.203125l1.203125 0l-0.25 1.203125l-1.203125 0zm4.015625 0l0.25 -1.203125l1.1875 0l-0.25 1.203125l-1.1875 0z" fill-rule="nonzero"></path><path fill="#222222" d="m357.42673 88.45543l-1.03125 -9.859375l1.625 0l0.4375 4.4375l0.1875 2.484375q0.015625 0.28125 0.046875 1.125q0.28125 -0.953125 0.46875 -1.453125q0.203125 -0.515625 0.625 -1.453125l2.34375 -5.140625l1.828125 0l0.328125 4.9375q0.078125 1.125 0.09375 2.984375q0.46875 -1.234375 1.515625 -3.4375l2.109375 -4.484375l1.6875 0l-4.8125 9.859375l-1.75 0l-0.375 -5.78125q-0.03125 -0.53125 -0.046875 -2.09375q-0.390625 0.984375 -0.90625 2.140625l-2.609375 5.734375l-1.765625 0z" fill-rule="nonzero"></path><path fill="#222222" d="m371.2747 94.596054l-0.171875 0.859375q-0.375 0.109375 -0.734375 0.109375q-0.640625 0 -1.015625 -0.3125q-0.28125 -0.234375 -0.28125 -0.640625q0 -0.203125 0.15625 -0.9375l0.75 -3.625l-0.828125 0l0.171875 -0.8125l0.828125 0l0.328125 -1.53125l1.203125 -0.734375l-0.46875 2.265625l1.046875 0l-0.171875 0.8125l-1.046875 0l-0.71875 3.4375q-0.140625 0.65625 -0.140625 0.796875q0 0.1875 0.109375 0.28125q0.109375 0.09375 0.359375 0.09375q0.359375 0 0.625 -0.0625zm4.00235 -0.53125l0 -2.359375l-2.34375 0l0 -0.984375l2.34375 0l0 -2.328125l0.984375 0l0 2.328125l2.34375 0l0 0.984375l-2.34375 0l0 2.359375l-0.984375 0zm4.3413086 -0.734375l1.0625 -0.0625q0 0.453125 0.140625 0.78125q0.140625 0.3125 0.515625 0.515625q0.375 0.203125 0.875 0.203125q0.703125 0 1.046875 -0.28125q0.359375 -0.28125 0.359375 -0.65625q0 -0.28125 -0.203125 -0.515625q-0.21875 -0.25 -1.0625 -0.609375q-0.84375 -0.359375 -1.078125 -0.515625q-0.390625 -0.234375 -0.59375 -0.5625q-0.1875 -0.328125 -0.1875 -0.75q0 -0.734375 0.578125 -1.25q0.59375 -0.53125 1.640625 -0.53125q1.171875 0 1.78125 0.546875q0.625 0.53125 0.640625 1.421875l-1.03125 0.0625q-0.03125 -0.5625 -0.40625 -0.890625q-0.375 -0.328125 -1.0625 -0.328125q-0.546875 0 -0.859375 0.25q-0.296875 0.25 -0.296875 0.546875q0 0.296875 0.265625 0.515625q0.171875 0.15625 0.90625 0.46875q1.21875 0.53125 1.53125 0.828125q0.515625 0.5 0.515625 1.1875q0 0.46875 -0.296875 0.921875q-0.28125 0.4375 -0.859375 0.703125q-0.578125 0.265625 -1.375 0.265625q-1.078125 0 -1.828125 -0.53125q-0.765625 -0.53125 -0.71875 -1.734375zm6.2811584 -0.453125l0.21875 -1.0625l3.234375 0l-0.21875 1.0625l-3.234375 0zm6.4698486 2.578125l1.359375 -6.484375q-0.875 0.6875 -2.46875 1.109375l0.1875 -0.96875q0.796875 -0.3125 1.5625 -0.8125q0.78125 -0.515625 1.15625 -0.90625q0.234375 -0.234375 0.453125 -0.5625l0.609375 0l-1.796875 8.625l-1.0625 0z" fill-rule="nonzero"></path><path fill="#222222" d="m400.44263 92.23668l-3.6875 0l0 -1.390625l2.015625 0l0 -14.609375l-2.015625 0l0 -1.375l3.6875 0l0 17.375z" fill-rule="nonzero"></path><path fill="#e6b8af" d="m439.32925 266.66425l0 0c0 -5.337433 4.3268433 -9.664246 9.664246 -9.664246l129.92471 0c2.5631104 0 5.02124 1.0181885 6.833618 2.830597c1.812439 1.8123779 2.8306274 4.2705383 2.8306274 6.8336487l0 38.65576c0 5.337433 -4.3268433 9.664246 -9.664246 9.664246l-129.92471 0l0 0c-5.3374023 0 -9.664246 -4.3268127 -9.664246 -9.664246z" fill-rule="evenodd"></path><path stroke="#000000" stroke-width="2.0" stroke-linejoin="round" stroke-linecap="butt" d="m439.32925 266.66425l0 0c0 -5.337433 4.3268433 -9.664246 9.664246 -9.664246l129.92471 0c2.5631104 0 5.02124 1.0181885 6.833618 2.830597c1.812439 1.8123779 2.8306274 4.2705383 2.8306274 6.8336487l0 38.65576c0 5.337433 -4.3268433 9.664246 -9.664246 9.664246l-129.92471 0l0 0c-5.3374023 0 -9.664246 -4.3268127 -9.664246 -9.664246z" fill-rule="evenodd"></path><path fill="#222222" d="m452.4567 296.69336l0 -17.375l3.671875 0l0 1.375l-2.015625 0l0 14.609375l2.015625 0l0 1.390625l-3.671875 0z" fill-rule="nonzero"></path><path fill="#222222" d="m458.84314 292.9121l-1.03125 -9.859375l1.625 0l0.4375 4.4375l0.1875 2.484375q0.015625 0.28125 0.046875 1.125q0.28125 -0.953125 0.46875 -1.453125q0.203125 -0.515625 0.625 -1.453125l2.34375 -5.140625l1.828125 0l0.328125 4.9375q0.078125 1.125 0.09375 2.984375q0.46875 -1.234375 1.515625 -3.4375l2.109375 -4.484375l1.6875 0l-4.8125 9.859375l-1.75 0l-0.375 -5.78125q-0.03125 -0.53125 -0.046875 -2.09375q-0.390625 0.984375 -0.90625 2.140625l-2.609375 5.734375l-1.765625 0z" fill-rule="nonzero"></path><path fill="#222222" d="m472.69107 299.05273l-0.171875 0.859375q-0.375 0.109375 -0.734375 0.109375q-0.640625 0 -1.015625 -0.3125q-0.28125 -0.234375 -0.28125 -0.640625q0 -0.203125 0.15625 -0.9375l0.75 -3.625l-0.828125 0l0.171875 -0.8125l0.828125 0l0.328125 -1.53125l1.203125 -0.734375l-0.46875 2.265625l1.046875 0l-0.171875 0.8125l-1.046875 0l-0.71875 3.4375q-0.140625 0.65625 -0.140625 0.796875q0 0.1875 0.109375 0.28125q0.109375 0.09375 0.359375 0.09375q0.359375 0 0.625 -0.0625z" fill-rule="nonzero"></path><path fill="#222222" d="m480.95486 292.9121l-1.03125 -9.859375l1.625 0l0.4375 4.4375l0.1875 2.484375q0.015625 0.28125 0.046875 1.125q0.28125 -0.953125 0.46875 -1.453125q0.203125 -0.515625 0.625 -1.453125l2.34375 -5.140625l1.828125 0l0.328125 4.9375q0.078125 1.125 0.09375 2.984375q0.46875 -1.234375 1.515625 -3.4375l2.109375 -4.484375l1.6875 0l-4.8125 9.859375l-1.75 0l-0.375 -5.78125q-0.03125 -0.53125 -0.046875 -2.09375q-0.390625 0.984375 -0.90625 2.140625l-2.609375 5.734375l-1.765625 0z" fill-rule="nonzero"></path><path fill="#222222" d="m494.8028 299.05273l-0.171875 0.859375q-0.375 0.109375 -0.734375 0.109375q-0.640625 0 -1.015625 -0.3125q-0.28125 -0.234375 -0.28125 -0.640625q0 -0.203125 0.15625 -0.9375l0.75 -3.625l-0.828125 0l0.171875 -0.8125l0.828125 0l0.328125 -1.53125l1.203125 -0.734375l-0.46875 2.265625l1.046875 0l-0.171875 0.8125l-1.046875 0l-0.71875 3.4375q-0.140625 0.65625 -0.140625 0.796875q0 0.1875 0.109375 0.28125q0.109375 0.09375 0.359375 0.09375q0.359375 0 0.625 -0.0625zm4.0023804 -0.53125l0 -2.359375l-2.34375 0l0 -0.984375l2.34375 0l0 -2.328125l0.984375 0l0 2.328125l2.34375 0l0 0.984375l-2.34375 0l0 2.359375l-0.984375 0zm6.7319336 1.390625l1.359375 -6.484375q-0.875 0.6875 -2.46875 1.109375l0.1875 -0.96875q0.796875 -0.3125 1.5625 -0.8125q0.78125 -0.515625 1.15625 -0.90625q0.234375 -0.234375 0.453125 -0.5625l0.609375 0l-1.796875 8.625l-1.0625 0zm9.200623 0l0.25 -1.203125l1.203125 0l-0.25 1.203125l-1.203125 0zm4.015625 0l0.25 -1.203125l1.203125 0l-0.25 1.203125l-1.203125 0zm4.015625 0l0.25 -1.203125l1.1875 0l-0.25 1.203125l-1.1875 0z" fill-rule="nonzero"></path><path fill="#222222" d="m531.4118 292.9121l-1.03125 -9.859375l1.625 0l0.4375 4.4375l0.1875 2.484375q0.015625 0.28125 0.046875 1.125q0.28125 -0.953125 0.46875 -1.453125q0.203125 -0.515625 0.625 -1.453125l2.34375 -5.140625l1.828125 0l0.328125 4.9375q0.078125 1.125 0.09375 2.984375q0.46875 -1.234375 1.515625 -3.4375l2.109375 -4.484375l1.6875 0l-4.8125 9.859375l-1.75 0l-0.375 -5.78125q-0.03125 -0.53125 -0.046875 -2.09375q-0.390625 0.984375 -0.90625 2.140625l-2.609375 5.734375l-1.765625 0z" fill-rule="nonzero"></path><path fill="#222222" d="m545.25977 299.05273l-0.171875 0.859375q-0.375 0.109375 -0.734375 0.109375q-0.640625 0 -1.015625 -0.3125q-0.28125 -0.234375 -0.28125 -0.640625q0 -0.203125 0.15625 -0.9375l0.75 -3.625l-0.828125 0l0.171875 -0.8125l0.828125 0l0.328125 -1.53125l1.203125 -0.734375l-0.46875 2.265625l1.046875 0l-0.171875 0.8125l-1.046875 0l-0.71875 3.4375q-0.140625 0.65625 -0.140625 0.796875q0 0.1875 0.109375 0.28125q0.109375 0.09375 0.359375 0.09375q0.359375 0 0.625 -0.0625zm4.0023193 -0.53125l0 -2.359375l-2.34375 0l0 -0.984375l2.34375 0l0 -2.328125l0.984375 0l0 2.328125l2.34375 0l0 0.984375l-2.34375 0l0 2.359375l-0.984375 0zm4.3413696 -0.734375l1.0625 -0.0625q0 0.453125 0.140625 0.78125q0.140625 0.3125 0.515625 0.515625q0.375 0.203125 0.875 0.203125q0.703125 0 1.046875 -0.28125q0.359375 -0.28125 0.359375 -0.65625q0 -0.28125 -0.203125 -0.515625q-0.21875 -0.25 -1.0625 -0.609375q-0.84375 -0.359375 -1.078125 -0.515625q-0.390625 -0.234375 -0.59375 -0.5625q-0.1875 -0.328125 -0.1875 -0.75q0 -0.734375 0.578125 -1.25q0.59375 -0.53125 1.640625 -0.53125q1.171875 0 1.78125 0.546875q0.625 0.53125 0.640625 1.421875l-1.03125 0.0625q-0.03125 -0.5625 -0.40625 -0.890625q-0.375 -0.328125 -1.0625 -0.328125q-0.546875 0 -0.859375 0.25q-0.296875 0.25 -0.296875 0.546875q0 0.296875 0.265625 0.515625q0.171875 0.15625 0.90625 0.46875q1.21875 0.53125 1.53125 0.828125q0.515625 0.5 0.515625 1.1875q0 0.46875 -0.296875 0.921875q-0.28125 0.4375 -0.859375 0.703125q-0.578125 0.265625 -1.375 0.265625q-1.078125 0 -1.828125 -0.53125q-0.765625 -0.53125 -0.71875 -1.734375zm6.281128 -0.453125l0.21875 -1.0625l3.234375 0l-0.21875 1.0625l-3.234375 0zm6.4698486 2.578125l1.359375 -6.484375q-0.875 0.6875 -2.46875 1.109375l0.1875 -0.96875q0.796875 -0.3125 1.5625 -0.8125q0.78125 -0.515625 1.15625 -0.90625q0.234375 -0.234375 0.453125 -0.5625l0.609375 0l-1.796875 8.625l-1.0625 0z" fill-rule="nonzero"></path><path fill="#222222" d="m574.42773 296.69336l-3.6875 0l0 -1.390625l2.015625 0l0 -14.609375l-2.015625 0l0 -1.375l3.6875 0l0 17.375z" fill-rule="nonzero"></path><path fill="#000000" fill-opacity="0.0" d="m513.9559 168.51181l0 -57.984253" fill-rule="evenodd"></path><path stroke="#000000" stroke-width="2.0" stroke-linejoin="round" stroke-linecap="butt" d="m513.9559 168.51181l0 -45.984253" fill-rule="evenodd"></path><path fill="#000000" stroke="#000000" stroke-width="2.0" stroke-linecap="butt" d="m517.25934 122.52756l-3.3034668 -9.076195l-3.3034668 9.076195z" fill-rule="evenodd"></path><path fill="#000000" fill-opacity="0.0" d="m513.9559 257.0l0 -49.984253" fill-rule="evenodd"></path><path stroke="#000000" stroke-width="2.0" stroke-linejoin="round" stroke-linecap="butt" d="m513.9559 257.0l0 -37.984253" fill-rule="evenodd"></path><path fill="#000000" stroke="#000000" stroke-width="2.0" stroke-linecap="butt" d="m517.25934 219.01575l-3.3034668 -9.076187l-3.3034668 9.076187z" fill-rule="evenodd"></path><path fill="#c9daf8" d="m461.44327 149.0l0 0c0 -4.8828125E-4 3.6621094E-4 -8.69751E-4 8.544922E-4 -8.69751E-4l105.02432 8.69751E-4c2.4414062E-4 0 4.8828125E-4 9.1552734E-5 6.1035156E-4 2.593994E-4c1.8310547E-4 1.6784668E-4 3.0517578E-4 3.8146973E-4 3.0517578E-4 6.1035156E-4l-9.1552734E-4 58.014877c0 4.8828125E-4 -3.6621094E-4 8.69751E-4 -8.544922E-4 8.69751E-4l-105.02432 -8.69751E-4l0 0c-4.8828125E-4 0 -8.8500977E-4 -3.9672852E-4 -8.8500977E-4 -8.69751E-4z" fill-rule="evenodd"></path><path stroke="#1155cc" stroke-width="2.0" stroke-linejoin="round" stroke-linecap="butt" d="m461.44327 149.0l0 0c0 -4.8828125E-4 3.6621094E-4 -8.69751E-4 8.544922E-4 -8.69751E-4l105.02432 8.69751E-4c2.4414062E-4 0 4.8828125E-4 9.1552734E-5 6.1035156E-4 2.593994E-4c1.8310547E-4 1.6784668E-4 3.0517578E-4 3.8146973E-4 3.0517578E-4 6.1035156E-4l-9.1552734E-4 58.014877c0 4.8828125E-4 -3.6621094E-4 8.69751E-4 -8.544922E-4 8.69751E-4l-105.02432 -8.69751E-4l0 0c-4.8828125E-4 0 -8.8500977E-4 -3.9672852E-4 -8.8500977E-4 -8.69751E-4z" fill-rule="evenodd"></path><path fill="#1155cc" d="m486.54108 185.48787l0 -14.90625l3.03125 0l0 12.375l7.546875 0l0 2.53125l-10.578125 0zm12.184326 -4.890625l2.953125 -0.28125q0.265625 1.484375 1.078125 2.1875q0.8125 0.6875 2.203125 0.6875q1.453125 0 2.203125 -0.609375q0.75 -0.625 0.75 -1.46875q0 -0.53125 -0.3125 -0.90625q-0.3125 -0.375 -1.09375 -0.640625q-0.53125 -0.1875 -2.4375 -0.65625q-2.4375 -0.609375 -3.421875 -1.484375q-1.390625 -1.25 -1.390625 -3.03125q0 -1.15625 0.65625 -2.15625q0.65625 -1.0 1.875 -1.515625q1.234375 -0.515625 2.953125 -0.515625q2.84375 0 4.265625 1.234375q1.4375 1.234375 1.5 3.3125l-3.03125 0.125q-0.1875 -1.15625 -0.828125 -1.65625q-0.640625 -0.515625 -1.9375 -0.515625q-1.3125 0 -2.0625 0.546875q-0.484375 0.34375 -0.484375 0.9375q0 0.53125 0.453125 0.90625q0.578125 0.484375 2.78125 1.015625q2.21875 0.515625 3.28125 1.078125q1.0625 0.5625 1.65625 1.53125q0.609375 0.96875 0.609375 2.390625q0 1.28125 -0.71875 2.421875q-0.71875 1.125 -2.03125 1.671875q-1.3125 0.546875 -3.265625 0.546875q-2.859375 0 -4.390625 -1.3125q-1.515625 -1.328125 -1.8125 -3.84375zm18.366333 4.890625l0 -12.484375l-4.453125 0l0 -2.546875l11.9375 0l0 2.546875l-4.4375 0l0 12.484375l-3.046875 0zm9.606201 0l0 -15.03125l4.546875 0l2.71875 10.25l2.703125 -10.25l4.546875 0l0 15.03125l-2.8125 0l0 -11.828125l-2.984375 11.828125l-2.921875 0l-2.96875 -11.828125l0 11.828125l-2.828125 0z" fill-rule="nonzero"></path><path fill="#b6d7a8" d="m439.32925 62.207542l0 0c0 -5.33741 4.3268433 -9.664234 9.664246 -9.664234l129.92471 0c2.5631104 0 5.02124 1.0181923 6.833618 2.8305893c1.812439 1.8123932 2.8306274 4.2705307 2.8306274 6.833645l0 38.655785c0 5.33741 -4.3268433 9.66423 -9.664246 9.66423l-129.92471 0l0 0c-5.3374023 0 -9.664246 -4.3268204 -9.664246 -9.66423z" fill-rule="evenodd"></path><path stroke="#000000" stroke-width="2.0" stroke-linejoin="round" stroke-linecap="butt" d="m439.32925 62.207542l0 0c0 -5.33741 4.3268433 -9.664234 9.664246 -9.664234l129.92471 0c2.5631104 0 5.02124 1.0181923 6.833618 2.8305893c1.812439 1.8123932 2.8306274 4.2705307 2.8306274 6.833645l0 38.655785c0 5.33741 -4.3268433 9.66423 -9.664246 9.66423l-129.92471 0l0 0c-5.3374023 0 -9.664246 -4.3268204 -9.664246 -9.66423z" fill-rule="evenodd"></path><path fill="#222222" d="m452.4567 92.23668l0 -17.375l3.671875 0l0 1.375l-2.015625 0l0 14.609375l2.015625 0l0 1.390625l-3.671875 0z" fill-rule="nonzero"></path><path fill="#222222" d="m458.84314 88.45543l-1.03125 -9.859375l1.625 0l0.4375 4.4375l0.1875 2.484375q0.015625 0.28125 0.046875 1.125q0.28125 -0.953125 0.46875 -1.453125q0.203125 -0.515625 0.625 -1.453125l2.34375 -5.140625l1.828125 0l0.328125 4.9375q0.078125 1.125 0.09375 2.984375q0.46875 -1.234375 1.515625 -3.4375l2.109375 -4.484375l1.6875 0l-4.8125 9.859375l-1.75 0l-0.375 -5.78125q-0.03125 -0.53125 -0.046875 -2.09375q-0.390625 0.984375 -0.90625 2.140625l-2.609375 5.734375l-1.765625 0z" fill-rule="nonzero"></path><path fill="#222222" d="m472.69107 94.596054l-0.171875 0.859375q-0.375 0.109375 -0.734375 0.109375q-0.640625 0 -1.015625 -0.3125q-0.28125 -0.234375 -0.28125 -0.640625q0 -0.203125 0.15625 -0.9375l0.75 -3.625l-0.828125 0l0.171875 -0.8125l0.828125 0l0.328125 -1.53125l1.203125 -0.734375l-0.46875 2.265625l1.046875 0l-0.171875 0.8125l-1.046875 0l-0.71875 3.4375q-0.140625 0.65625 -0.140625 0.796875q0 0.1875 0.109375 0.28125q0.109375 0.09375 0.359375 0.09375q0.359375 0 0.625 -0.0625z" fill-rule="nonzero"></path><path fill="#222222" d="m480.95486 88.45543l-1.03125 -9.859375l1.625 0l0.4375 4.4375l0.1875 2.484375q0.015625 0.28125 0.046875 1.125q0.28125 -0.953125 0.46875 -1.453125q0.203125 -0.515625 0.625 -1.453125l2.34375 -5.140625l1.828125 0l0.328125 4.9375q0.078125 1.125 0.09375 2.984375q0.46875 -1.234375 1.515625 -3.4375l2.109375 -4.484375l1.6875 0l-4.8125 9.859375l-1.75 0l-0.375 -5.78125q-0.03125 -0.53125 -0.046875 -2.09375q-0.390625 0.984375 -0.90625 2.140625l-2.609375 5.734375l-1.765625 0z" fill-rule="nonzero"></path><path fill="#222222" d="m494.8028 94.596054l-0.171875 0.859375q-0.375 0.109375 -0.734375 0.109375q-0.640625 0 -1.015625 -0.3125q-0.28125 -0.234375 -0.28125 -0.640625q0 -0.203125 0.15625 -0.9375l0.75 -3.625l-0.828125 0l0.171875 -0.8125l0.828125 0l0.328125 -1.53125l1.203125 -0.734375l-0.46875 2.265625l1.046875 0l-0.171875 0.8125l-1.046875 0l-0.71875 3.4375q-0.140625 0.65625 -0.140625 0.796875q0 0.1875 0.109375 0.28125q0.109375 0.09375 0.359375 0.09375q0.359375 0 0.625 -0.0625zm4.0023804 -0.53125l0 -2.359375l-2.34375 0l0 -0.984375l2.34375 0l0 -2.328125l0.984375 0l0 2.328125l2.34375 0l0 0.984375l-2.34375 0l0 2.359375l-0.984375 0zm6.7319336 1.390625l1.359375 -6.484375q-0.875 0.6875 -2.46875 1.109375l0.1875 -0.96875q0.796875 -0.3125 1.5625 -0.8125q0.78125 -0.515625 1.15625 -0.90625q0.234375 -0.234375 0.453125 -0.5625l0.609375 0l-1.796875 8.625l-1.0625 0zm9.200623 0l0.25 -1.203125l1.203125 0l-0.25 1.203125l-1.203125 0zm4.015625 0l0.25 -1.203125l1.203125 0l-0.25 1.203125l-1.203125 0zm4.015625 0l0.25 -1.203125l1.1875 0l-0.25 1.203125l-1.1875 0z" fill-rule="nonzero"></path><path fill="#222222" d="m531.4118 88.45543l-1.03125 -9.859375l1.625 0l0.4375 4.4375l0.1875 2.484375q0.015625 0.28125 0.046875 1.125q0.28125 -0.953125 0.46875 -1.453125q0.203125 -0.515625 0.625 -1.453125l2.34375 -5.140625l1.828125 0l0.328125 4.9375q0.078125 1.125 0.09375 2.984375q0.46875 -1.234375 1.515625 -3.4375l2.109375 -4.484375l1.6875 0l-4.8125 9.859375l-1.75 0l-0.375 -5.78125q-0.03125 -0.53125 -0.046875 -2.09375q-0.390625 0.984375 -0.90625 2.140625l-2.609375 5.734375l-1.765625 0z" fill-rule="nonzero"></path><path fill="#222222" d="m545.25977 94.596054l-0.171875 0.859375q-0.375 0.109375 -0.734375 0.109375q-0.640625 0 -1.015625 -0.3125q-0.28125 -0.234375 -0.28125 -0.640625q0 -0.203125 0.15625 -0.9375l0.75 -3.625l-0.828125 0l0.171875 -0.8125l0.828125 0l0.328125 -1.53125l1.203125 -0.734375l-0.46875 2.265625l1.046875 0l-0.171875 0.8125l-1.046875 0l-0.71875 3.4375q-0.140625 0.65625 -0.140625 0.796875q0 0.1875 0.109375 0.28125q0.109375 0.09375 0.359375 0.09375q0.359375 0 0.625 -0.0625zm4.0023193 -0.53125l0 -2.359375l-2.34375 0l0 -0.984375l2.34375 0l0 -2.328125l0.984375 0l0 2.328125l2.34375 0l0 0.984375l-2.34375 0l0 2.359375l-0.984375 0zm4.3413696 -0.734375l1.0625 -0.0625q0 0.453125 0.140625 0.78125q0.140625 0.3125 0.515625 0.515625q0.375 0.203125 0.875 0.203125q0.703125 0 1.046875 -0.28125q0.359375 -0.28125 0.359375 -0.65625q0 -0.28125 -0.203125 -0.515625q-0.21875 -0.25 -1.0625 -0.609375q-0.84375 -0.359375 -1.078125 -0.515625q-0.390625 -0.234375 -0.59375 -0.5625q-0.1875 -0.328125 -0.1875 -0.75q0 -0.734375 0.578125 -1.25q0.59375 -0.53125 1.640625 -0.53125q1.171875 0 1.78125 0.546875q0.625 0.53125 0.640625 1.421875l-1.03125 0.0625q-0.03125 -0.5625 -0.40625 -0.890625q-0.375 -0.328125 -1.0625 -0.328125q-0.546875 0 -0.859375 0.25q-0.296875 0.25 -0.296875 0.546875q0 0.296875 0.265625 0.515625q0.171875 0.15625 0.90625 0.46875q1.21875 0.53125 1.53125 0.828125q0.515625 0.5 0.515625 1.1875q0 0.46875 -0.296875 0.921875q-0.28125 0.4375 -0.859375 0.703125q-0.578125 0.265625 -1.375 0.265625q-1.078125 0 -1.828125 -0.53125q-0.765625 -0.53125 -0.71875 -1.734375zm6.281128 -0.453125l0.21875 -1.0625l3.234375 0l-0.21875 1.0625l-3.234375 0zm6.4698486 2.578125l1.359375 -6.484375q-0.875 0.6875 -2.46875 1.109375l0.1875 -0.96875q0.796875 -0.3125 1.5625 -0.8125q0.78125 -0.515625 1.15625 -0.90625q0.234375 -0.234375 0.453125 -0.5625l0.609375 0l-1.796875 8.625l-1.0625 0z" fill-rule="nonzero"></path><path fill="#222222" d="m574.42773 92.23668l-3.6875 0l0 -1.390625l2.015625 0l0 -14.609375l-2.015625 0l0 -1.375l3.6875 0l0 17.375z" fill-rule="nonzero"></path><path fill="#000000" fill-opacity="0.0" d="m392.4834 178.00787l68.944885 0" fill-rule="evenodd"></path><path stroke="#000000" stroke-width="2.0" stroke-linejoin="round" stroke-linecap="butt" d="m392.4834 178.00787l56.944885 0" fill-rule="evenodd"></path><path fill="#000000" stroke="#000000" stroke-width="2.0" stroke-linecap="butt" d="m449.42828 181.31134l9.076172 -3.3034668l-9.076172 -3.3034668z" fill-rule="evenodd"></path><path fill="#000000" fill-opacity="0.0" d="m565.4384 178.00787l68.97638 0" fill-rule="evenodd"></path><path stroke="#000000" stroke-width="2.0" stroke-linejoin="round" stroke-linecap="butt" d="m565.4384 178.00787l56.97638 0" fill-rule="evenodd"></path><path fill="#000000" stroke="#000000" stroke-width="2.0" stroke-linecap="butt" d="m622.4148 181.31134l9.076172 -3.3034668l-9.076172 -3.3034668z" fill-rule="evenodd"></path><path fill="#000000" fill-opacity="0.0" d="m626.17065 149.0l81.82678 0l0 35.27559l-81.82678 0z" fill-rule="evenodd"></path><path fill="#000000" d="m653.76996 178.48l0 -2.875l2.890625 0l0 2.875l-2.890625 0zm11.851257 0l0 -2.875l2.890625 0l0 2.875l-2.890625 0zm11.851318 0l0 -2.875l2.890625 0l0 2.875l-2.890625 0z" fill-rule="nonzero"></path></g></svg>

